<svg width="237" height="56" viewBox="0 0 237 56" fill="none" xmlns="http://www.w3.org/2000/svg">
<path d="M231.434 29.1311C234.506 29.1311 236.997 26.6393 236.997 23.5655C236.997 20.4918 234.506 18 231.434 18C228.361 18 225.871 20.4918 225.871 23.5655C225.871 26.6393 228.361 29.1311 231.434 29.1311Z" fill="#00F500"/>
<path d="M171.14 36.7151C168.303 36.7151 166.068 34.4823 166.068 31.5775C166.068 28.6727 168.3 26.4398 171.14 26.4398C173.981 26.4398 176.276 28.6727 176.276 31.5775C176.276 34.4823 173.978 36.7151 171.14 36.7151ZM176.276 26.3133H175.67C174.553 24.3034 172.481 23.1554 170.089 23.1554C166.167 23.1554 162.529 26.8255 162.529 31.5775C162.529 36.3294 166.068 39.9695 170.089 39.9695C172.481 39.9695 174.553 38.8214 175.67 36.8116H176.276V39.5567H179.785V23.535H176.276V26.3133ZM8.61123 36.7151C5.77395 36.7151 3.53907 34.4823 3.53907 31.5775C3.53907 28.6727 5.77094 26.4398 8.61123 26.4398C11.4515 26.4398 13.7466 28.6727 13.7466 31.5775C13.7466 34.4823 11.4485 36.7151 8.61123 36.7151ZM13.7466 26.3133H13.1412C12.0238 24.3034 9.95155 23.1523 7.56005 23.1523C3.63545 23.1523 0 26.8225 0 31.5775C0 36.3325 3.53907 39.9695 7.56005 39.9695C9.95155 39.9695 12.0238 38.8214 13.1412 36.8116H13.7466V39.5567H17.2556V23.535H13.7466V26.3133ZM196.399 29.887H188.203V23.535H184.694V39.5537H188.203V33.2047H196.399V39.5537H199.908V23.535H196.399V29.887ZM212.248 31.3846L220.54 23.535H215.754L208.326 30.8724V23.535H204.817V39.5537H208.326V32.1832L215.82 39.5537H220.955L212.248 31.3846ZM154.204 36.4259H148.559V32.4061H154.204C155.797 32.4061 156.565 33.2348 156.565 34.416C156.565 35.5972 155.83 36.4259 154.204 36.4259ZM154.62 29.2784H148.559V26.6628H158.83V23.535H145.054V39.5537H154.623C157.909 39.5537 160.141 37.3841 160.141 34.416C160.141 31.4479 157.872 29.2784 154.62 29.2784ZM112.136 36.682C109.232 36.682 107.097 34.4492 107.097 31.5775C107.097 28.6727 109.232 26.4398 112.136 26.4398C114.943 26.4398 117.175 28.6727 117.175 31.5775C117.175 34.4492 115.006 36.682 112.136 36.682ZM112.136 23.1523C107.925 23.1523 104.512 26.0572 103.747 29.9172H100.781V23.535H97.2716V39.5537H100.781V33.1715H103.747C104.482 37.0647 107.925 39.9665 112.136 39.9665C116.855 39.9665 120.684 36.233 120.684 31.5745C120.684 26.8858 116.825 23.1523 112.136 23.1523ZM121.961 26.8557H127.828V39.5537H131.337V26.8557H137.204V23.535H121.961V26.8557ZM83.3382 23.535L76.48 39.5537H80.1787L85.5039 26.7592L90.829 39.5537H94.6874L87.8291 23.535H83.3382ZM48.1584 26.4398C51.6041 26.4398 52.5589 29.0885 52.5589 29.0885H56.2576C56.2576 29.0885 54.7908 23.1523 48.1554 23.1523C43.4025 23.1523 39.6707 26.8858 39.6707 31.5745C39.6707 36.2963 43.4025 39.9966 48.1554 39.9966C54.7878 39.9966 56.2576 34.0604 56.2576 34.0604H52.5589C52.5589 34.0604 51.6011 36.7091 48.1584 36.7091C45.3513 36.7091 43.2459 34.4763 43.2459 31.5715C43.2459 28.6667 45.3513 26.4398 48.1584 26.4398ZM31.3817 36.3957H25.7072V32.4061H31.3847C32.9781 32.4061 33.7461 33.2348 33.7461 34.416C33.7461 35.5972 33.0082 36.3957 31.3817 36.3957ZM31.7974 29.2784H25.7072V26.693H36.0081V23.535H22.1982V39.5537H31.7974C35.0503 39.5537 37.3153 37.3841 37.3153 34.416C37.3153 31.4479 35.0202 29.2784 31.7974 29.2784ZM66.9109 36.682C63.9442 36.682 61.7755 34.4492 61.7755 31.5775C61.7755 28.6727 63.9442 26.4398 66.9109 26.4398C69.7814 26.4398 72.0464 28.6727 72.0464 31.5775C72.0464 34.4492 69.8476 36.682 66.9109 36.682ZM66.9109 23.1523C62.0617 23.1523 58.2365 26.8858 58.2365 31.5745C58.2365 36.233 62.0647 39.9665 66.9109 39.9665C71.7271 39.9665 75.6186 36.233 75.6186 31.5745C75.6186 26.8858 71.6638 23.1523 66.9109 23.1523Z" fill="#FF5000"/>
</svg>
