<svg width="265" height="56" viewBox="0 0 265 56" fill="none" xmlns="http://www.w3.org/2000/svg">
<path d="M47.6238 23.1751C47.6238 22.9755 47.557 22.7758 47.4902 22.4431L43.2829 10.9965C42.7486 9.59895 42.014 9 40.8787 9C39.6766 9 38.942 9.59895 38.4745 10.9965L34.2003 22.4431C34.0668 22.8424 34 23.042 34 23.1751C34 23.7741 34.4675 24.2399 35.1353 24.2399C35.6696 24.2399 36.0703 23.9737 36.3374 23.3082L37.7399 19.3818H44.0175L45.4199 23.3082C45.6203 23.9737 46.021 24.2399 46.5553 24.2399C47.1563 24.3065 47.6238 23.7741 47.6238 23.1751ZM38.4077 17.3853L40.478 11.4623C40.5448 11.2627 40.6115 11.1961 40.8119 11.1961C40.9455 11.1961 41.0122 11.2627 41.079 11.4623L43.1493 17.3853H38.4077ZM66.7906 24.1734H71.3319C74.2703 24.1734 76.0735 22.4431 76.0735 19.4483C76.0735 16.5867 74.3371 14.9895 71.3319 14.9895H67.3249V11.3292H74.0032C74.7378 11.3292 75.2053 10.9299 75.2053 10.1979C75.2053 9.5324 74.7378 9.1331 74.0032 9.1331H66.7238C65.5885 9.1331 64.9207 9.73205 64.9207 10.9299V22.3765C65.0542 23.5744 65.6553 24.1734 66.7906 24.1734ZM67.3917 17.0525H71.1315C72.8679 17.0525 73.6693 17.9842 73.6693 19.5149C73.6693 21.1121 72.8679 22.0438 71.1315 22.0438H67.3917V17.0525ZM41.1458 37.8827H36.6713V33.2242H44.0843C44.5518 33.2242 44.9525 32.958 44.9525 32.4921C44.9525 32.0263 44.6185 31.7601 44.0843 31.7601H36.471C35.6028 31.7601 35.1353 32.2259 35.1353 33.0911V45.5359C35.1353 46.401 35.6028 46.8669 36.471 46.8669H41.1458C44.0175 46.8669 45.6871 45.2032 45.6871 42.3415C45.6871 39.4799 44.0175 37.8827 41.1458 37.8827ZM40.9455 45.3363H36.6713V39.2802H40.9455C43.1493 39.2802 44.0843 40.345 44.0843 42.275C44.0843 44.2049 43.2161 45.3363 40.9455 45.3363ZM51.9647 35.3538C50.629 35.3538 49.3602 35.6865 48.6923 36.0193C48.2248 36.2189 48.0245 36.4186 48.0245 36.8179C48.0245 37.2172 48.3584 37.4834 48.6923 37.4834C48.8927 37.4834 49.093 37.4168 49.2934 37.2837C49.8276 37.0841 50.8294 36.7513 51.8311 36.7513C53.7679 36.7513 54.7028 37.5499 54.7028 39.2802V40.345C53.5007 40.0123 52.6325 39.8792 51.564 39.8792C48.6923 39.8792 47.2899 41.5429 47.2899 43.3398C47.2899 45.5359 48.9595 46.9334 51.4972 46.9334C53.6343 46.9334 55.3039 46.2014 55.9049 45.7355C56.1721 45.5359 56.2388 45.4028 56.2388 45.0701V39.2137C56.1721 36.6182 54.5693 35.3538 51.9647 35.3538ZM54.636 44.8039C53.7679 45.2697 52.6325 45.6025 51.6308 45.6025C49.7609 45.6025 48.6923 44.8039 48.6923 43.4063C48.6923 42.1419 49.6273 41.2767 51.6308 41.2767C52.6325 41.2767 53.5007 41.4098 54.636 41.7426V44.8039ZM94.4389 12.7268C92.4354 12.7268 90.8326 13.4588 90.2316 13.7916C89.6973 14.1243 89.6305 14.324 89.6305 15.1891V26.7688C89.6305 27.5009 90.098 27.9667 90.7658 27.9667C91.4337 27.9667 91.9011 27.5009 91.9011 26.7688V23.7741C92.569 24.1068 93.6375 24.373 94.6393 24.373C97.3106 24.373 99.1137 22.6427 99.3141 20.1138C99.3809 19.2487 99.3809 17.8511 99.3141 16.986C99.1137 14.4571 97.3106 12.7268 94.4389 12.7268ZM97.0435 19.7811C96.9099 21.2452 95.9749 22.1769 94.3721 22.1769C93.5039 22.1769 92.4354 21.9107 91.9011 21.5114V15.5219C92.4354 15.1226 93.5039 14.8564 94.3721 14.8564C96.0417 14.8564 96.9099 15.8546 97.0435 17.2522C97.1102 18.0508 97.1102 18.9825 97.0435 19.7811ZM58.643 22.31L54.7028 18.3835L58.4427 14.6567C58.7098 14.3905 58.9102 14.0578 58.9102 13.725C58.9102 13.1926 58.5095 12.7933 57.9084 12.7933C57.5745 12.7933 57.3074 12.9264 57.0402 13.2592L53.1668 17.0525C52.9665 17.2522 52.7661 17.3853 52.4322 17.3853H51.6308V14.0578C51.6308 13.3257 51.1633 12.8599 50.4955 12.8599C49.8276 12.8599 49.3602 13.3257 49.3602 14.0578V23.042C49.3602 23.7741 49.8276 24.2399 50.4955 24.2399C51.1633 24.2399 51.6308 23.7741 51.6308 23.042V19.4483H52.2986C52.5658 19.4483 52.8329 19.5814 53.0332 19.7811L57.107 23.8406C57.4409 24.1734 57.7081 24.3065 58.042 24.3065C58.643 24.3065 59.0437 23.9072 59.0437 23.3082C59.0437 22.9089 58.9102 22.6427 58.643 22.31ZM109.933 20.0473C109.398 20.0473 109.131 20.38 108.931 20.7128C108.53 21.5779 107.729 22.1769 106.527 22.1769C104.924 22.1769 103.922 21.1786 103.789 19.7811C103.722 18.9825 103.722 18.1173 103.789 17.3187C103.922 15.8546 104.857 14.9229 106.527 14.9229C107.662 14.9229 108.53 15.5219 108.931 16.387C109.131 16.7198 109.398 17.0525 109.933 17.0525C110.6 17.0525 111.068 16.6532 111.068 15.9877C111.068 15.655 110.934 15.3222 110.734 14.9229C110.066 13.6585 108.597 12.7268 106.527 12.7268C103.722 12.7268 101.852 14.5236 101.585 17.0525C101.518 17.9177 101.518 19.3152 101.585 20.1138C101.852 22.6427 103.722 24.4396 106.527 24.4396C108.597 24.4396 110.066 23.4413 110.734 22.1769C110.934 21.7776 111.068 21.4448 111.068 21.1121C111.001 20.4466 110.6 20.0473 109.933 20.0473ZM82.3511 12.7268C81.0822 12.7268 79.9469 13.0595 79.2123 13.3257C78.6113 13.5919 78.3441 13.9247 78.3441 14.3905C78.3441 14.9229 78.7448 15.3888 79.2791 15.3888C79.5462 15.3888 79.8134 15.2557 80.1473 15.1891C80.6148 14.9895 81.4162 14.7898 82.2176 14.7898C83.9539 14.7898 84.6885 15.4553 84.6885 16.7863V17.718C83.6868 17.4518 82.8186 17.3187 81.8836 17.3187C79.012 17.3187 77.6095 18.9825 77.6095 20.7128C77.6095 22.7758 79.2123 24.373 81.9504 24.373C84.0875 24.373 85.7571 23.641 86.4249 23.1751C86.7588 22.9755 86.8256 22.7758 86.8256 22.31V16.7863C86.8924 13.9912 85.2228 12.7268 82.3511 12.7268ZM84.6885 21.8441C84.0207 22.1769 83.0857 22.4431 82.2176 22.4431C80.7483 22.4431 79.8134 21.7776 79.8134 20.7128C79.8134 19.7145 80.6148 18.9159 82.2176 18.9159C83.0857 18.9159 83.8204 19.049 84.7553 19.3152V21.8441H84.6885ZM75.2053 41.0771L79.5462 36.7513C79.7466 36.5517 79.8134 36.352 79.8134 36.1524C79.8134 35.8196 79.5462 35.4869 79.1455 35.4869C78.9452 35.4869 78.7448 35.5534 78.5445 35.7531L74.2703 40.0123C74.0032 40.2785 73.8029 40.4116 73.4689 40.4116H72.7343V36.352C72.7343 35.8196 72.4672 35.5534 71.9997 35.5534C71.5322 35.5534 71.2651 35.8196 71.2651 36.352V46.2014C71.2651 46.7338 71.5322 47 71.9997 47C72.4672 47 72.7343 46.7338 72.7343 46.2014V41.8091H73.5357C73.8696 41.8091 74.1368 41.9422 74.3371 42.2084L78.8784 46.7338C79.0787 46.9334 79.2791 47 79.4794 47C79.8801 47 80.1473 46.6673 80.1473 46.3345C80.1473 46.0683 80.0805 45.9352 79.8134 45.669L75.2053 41.0771ZM67.4584 35.4203C66.991 35.4203 66.7238 35.6865 66.7238 36.2189V40.2785H60.4462V36.2189C60.4462 35.6865 60.1791 35.4203 59.7116 35.4203C59.2441 35.4203 58.977 35.6865 58.977 36.2189V46.0683C58.977 46.6007 59.2441 46.8669 59.7116 46.8669C60.1791 46.8669 60.4462 46.6007 60.4462 46.0683V41.676H66.7238V46.0683C66.7238 46.6007 66.991 46.8669 67.4584 46.8669C67.9259 46.8669 68.1931 46.6007 68.1931 46.0683V36.2189C68.1931 35.7531 67.9259 35.4203 67.4584 35.4203Z" fill="#212121"/>
<path d="M185.052 21.6109L176.494 23.1733C175.095 23.4523 174.145 24.7915 174.368 26.1865C174.648 27.5815 175.99 28.5301 177.389 28.3069L185.947 26.7445C187.961 26.3539 189.247 27.5815 189.751 28.8649C190.254 30.1483 190.142 31.8781 188.408 32.9941L175.879 41.141C174.704 41.9222 173.306 41.9222 172.075 41.3084C170.844 40.6388 170.117 39.4112 170.117 38.0162V17.9838C170.117 14.6358 168.383 11.7342 165.418 10.116C162.51 8.4978 159.042 8.6652 156.245 10.4508L124.585 30.9295C121.005 33.2173 119.663 37.4023 121.229 41.3642C122.795 45.326 126.655 47.4464 130.85 46.721L158.482 41.7548C159.881 41.4758 160.832 40.1366 160.608 38.7416C160.328 37.3465 158.986 36.3979 157.587 36.6211L129.955 41.5874C127.885 41.978 126.655 40.7504 126.151 39.467C125.648 38.1836 125.76 36.4537 127.494 35.3377L159.154 14.859C160.328 14.0778 161.727 14.0778 162.957 14.6916C164.188 15.3612 164.915 16.5888 164.915 17.9838V38.0162C164.915 41.3642 166.649 44.2658 169.614 45.884C170.956 46.6094 172.466 47 173.921 47C175.599 47 177.277 46.4978 178.787 45.5492L191.373 37.4024C194.953 35.1145 196.295 30.9295 194.729 26.9677C193.107 23.0059 189.247 20.8297 185.052 21.6109ZM229.354 26.9119C227.788 22.9501 223.928 20.8297 219.733 21.5551L211.174 23.1175C209.776 23.3965 208.825 24.7357 209.049 26.1307C209.329 27.5257 210.671 28.4743 212.069 28.2511L220.628 26.6887C222.641 26.2981 223.928 27.5257 224.431 28.8091C224.935 30.0925 224.823 31.8223 223.089 32.9383L210.559 41.141C209.384 41.9222 207.986 41.9222 206.755 41.3084C205.525 40.6388 204.798 39.4112 204.798 38.0162V11.6226C204.798 10.1718 203.623 9 202.169 9C200.714 9 199.54 10.1718 199.54 11.6226V38.0162C199.54 41.3642 201.274 44.2658 204.238 45.884C205.581 46.6094 207.091 47 208.545 47C210.223 47 211.902 46.4978 213.412 45.5492L225.998 37.4024C229.577 35.0587 230.92 30.8737 229.354 26.9119Z" fill="#009B3A"/>
</svg>
