<svg width="266" height="56" viewBox="0 0 266 56" fill="none" xmlns="http://www.w3.org/2000/svg">
<path d="M228.004 22.139L221.043 29.9802V22.139H216.005V41.9355H221.043V33.6021L228.493 41.9355H235V41.9353L225.835 31.5625L234.335 22.139H228.004Z" fill="#EF3124"/>
<path d="M207.123 29.5231H200.163V22.139H195.125V41.9355H200.163V34.1293H207.123V41.9355H212.161V22.139H207.123V29.5231Z" fill="#EF3124"/>
<path d="M60.9082 32.8636C60.7878 36.5548 60.3138 37.2942 58.25 37.2942V41.9355H59.0194C64.1678 41.9355 65.406 39.2629 65.5958 33.321L65.8055 26.7455H70.6328V41.9355H75.6701V22.1393H61.2582L60.9082 32.8636Z" fill="#EF3124"/>
<path d="M87.8053 37.5756H84.5521V32.5473H87.8053C89.5544 32.5473 90.6038 33.321 90.6038 34.9734C90.6038 36.7667 89.5894 37.5756 87.8053 37.5756ZM88.19 28.1519H84.5521V22.139H79.5151V41.9355H88.2603C93.752 41.9355 95.7108 38.349 95.7108 34.9734C95.7108 30.6134 92.9826 28.1519 88.19 28.1519Z" fill="#EF3124"/>
<path d="M112.117 37.6108V26.4292C114.915 26.8159 116.664 28.9256 116.664 32.0199C116.664 35.1141 114.915 37.2238 112.117 37.6108ZM107.08 37.6108C104.281 37.2238 102.532 35.1141 102.532 32.0199C102.532 28.9256 104.281 26.8159 107.08 26.4292V37.6108ZM112.117 21.682V14.3328H107.08V21.682C101.308 22.1742 97.4248 26.2885 97.4248 32.0199C97.4248 37.7865 101.308 41.9007 107.08 42.3926V49.8477H112.117V42.3926C117.888 41.9356 121.771 37.7865 121.771 32.0199C121.771 26.2533 117.888 22.1391 112.117 21.682Z" fill="#EF3124"/>
<path d="M135.624 34.5511C135.624 36.8368 134.014 38.1379 131.915 38.1379C130.097 38.1379 128.662 37.4697 128.662 35.5004C128.662 33.5666 130.236 33.2503 131.601 33.2503H135.624V34.5511ZM140.661 35.8523V29.2067C140.661 24.3542 137.582 21.2946 132.405 21.2946C127.053 21.2946 124.22 24.5299 123.975 27.9056H129.082C129.257 27.167 130.027 25.9014 132.405 25.9014C134.364 25.9014 135.624 26.8155 135.624 29.2067H130.621C126.144 29.2067 123.485 31.5624 123.485 35.5004C123.485 39.6147 126.393 42.4277 130.586 42.4277C133.661 42.4277 135.368 40.967 136.113 39.8606C136.778 41.1967 138.247 41.9352 140.171 41.9352H141.92V37.3642C141.01 37.3642 140.661 36.9423 140.661 35.8523Z" fill="#EF3124"/>
<path d="M161.999 36.9427H156.612V29.7694H161.999C164.797 29.7694 166.371 31.0705 166.371 33.3559C166.371 35.7119 164.797 36.9427 161.999 36.9427ZM162.244 24.9518H156.612V19.3611H169.659V14.3328H151.33V41.9355H162.244C168.295 41.9355 171.758 38.9117 171.758 33.3559C171.758 28.117 168.295 24.9518 162.244 24.9518Z" fill="#EF3124"/>
<path d="M185.995 34.5511C185.995 36.8368 184.386 38.1379 182.287 38.1379C180.468 38.1379 179.034 37.4697 179.034 35.5004C179.034 33.5666 180.608 33.2503 181.972 33.2503H185.995V34.5511ZM191.032 35.8523V29.2067C191.032 24.3542 187.954 21.2946 182.777 21.2946C177.425 21.2946 174.592 24.5299 174.347 27.9056H179.454C179.629 27.167 180.398 25.9014 182.777 25.9014C184.736 25.9014 185.995 26.8155 185.995 29.2067H180.993C176.515 29.2067 173.857 31.5624 173.857 35.5004C173.857 39.6147 176.765 42.4277 180.958 42.4277C184.033 42.4277 185.739 40.967 186.485 39.8606C187.149 41.1967 188.619 41.9352 190.543 41.9352H192.292V37.3642C191.382 37.3642 191.032 36.9423 191.032 35.8523Z" fill="#EF3124"/>
<path d="M57.9349 56H31V50.3738H57.9349V56Z" fill="#EF3124"/>
<path d="M40.6195 31.4924L44.3973 20.2052H44.5371L48.1052 31.4924H40.6195ZM49.3632 18.1216C48.5952 15.8194 47.7102 14.0009 44.6771 14.0009C41.6442 14.0009 40.7021 15.8121 39.8937 18.1216L31.5596 41.9355H37.0866L39.0104 36.2745H49.6443L51.4282 41.9355H57.3051L49.3632 18.1216Z" fill="#EF3124"/>
</svg>
