<svg width="1180" height="444" viewBox="0 0 1180 444" fill="none" xmlns="http://www.w3.org/2000/svg">
<path d="M0 30.0823C60.1682 1.73144 206.703 63.8555 277.77 120.904M277.77 120.904C320.117 154.898 335.668 187.089 290.186 197.264C244.022 207.591 243.399 167.496 277.77 120.904ZM277.77 120.904C334.096 44.5537 484.398 -49.2414 682.269 32.8286C781.293 73.9008 814.764 129.734 810.118 186.973M810.118 186.973C799.815 313.903 602.074 447.746 516.089 442.871C391.329 435.797 182.137 274.28 536.313 201.028C639.181 179.753 730.522 177.952 810.118 186.973ZM810.118 186.973C1004.57 209.011 1128.93 295.636 1180 320.668" stroke="#6D81BD" stroke-opacity="0.2" stroke-width="2"/>
</svg>
