<svg width="265" height="56" viewBox="0 0 265 56" fill="none" xmlns="http://www.w3.org/2000/svg">
<path fill-rule="evenodd" clip-rule="evenodd" d="M80.2889 2L78.2154 7.71081H106.95L109.023 2H80.2889ZM77.178 10.5649L75.1045 16.2744H103.839L105.912 10.5649H77.178ZM74.0735 19.1298L72 24.8394H100.734L102.807 19.1298H74.0735Z" fill="#009FDF"/>
<mask id="mask0_1118_379" style="mask-type:alpha" maskUnits="userSpaceOnUse" x="115" y="10" width="79" height="36">
<path d="M115.111 45.6561H193.768V10.6738H115.111V45.6561Z" fill="white"/>
</mask>
<g mask="url(#mask0_1118_379)">
<path fill-rule="evenodd" clip-rule="evenodd" d="M133.088 27.0147V27.1352C134.401 27.6198 135.655 28.4673 136.312 29.0115C138.343 30.7064 139.239 32.9454 139.239 35.8505C139.239 40.6332 136.73 44.0826 132.609 45.1723C131.355 45.5351 130.042 45.6569 127.592 45.6569H115.111V10.6738H126.16C128.429 10.6738 129.982 10.7943 131.355 11.1571C135.357 12.2469 137.985 15.0315 137.985 19.4487C137.985 21.8096 137.149 23.8077 135.775 25.1385C135.178 25.7436 134.342 26.4705 133.088 27.0147ZM122.039 30.7064V39.9063H126.817C128.249 39.9063 129.564 39.7858 130.52 38.8775C131.475 37.9691 131.893 36.8198 131.893 35.3063C131.893 34.157 131.594 33.0673 130.997 32.2807C129.982 31.0096 128.727 30.7064 126.578 30.7064H122.039ZM121.979 24.6538H125.861C127.055 24.6538 127.652 24.6538 128.249 24.4724C129.863 23.9878 130.878 22.5366 130.878 20.5385C130.878 18.1789 129.803 17.1487 128.249 16.6654C127.592 16.484 126.936 16.4231 125.621 16.4231H121.979V24.6538ZM149.631 45.6569V16.5436H139.657V10.6738H167.37L165.399 16.5436H156.559V45.6569H149.631ZM169.519 45.6569V10.6738H191.976L190.006 16.5436H176.388V24.291H181.943C186.422 24.291 188.752 25.3808 190.364 26.7724C191.618 27.8622 193.768 30.2826 193.768 35.0653C193.768 39.7858 191.558 42.3877 189.707 43.7198C187.557 45.2319 185.288 45.6569 180.688 45.6569H169.519ZM176.388 39.7858H181.585C183.555 39.7858 184.749 39.3012 185.586 38.2114C186.004 37.6672 186.601 36.698 186.601 34.8826C186.601 33.0673 186.004 31.7961 184.81 30.8878C184.094 30.3436 183.137 30.0417 181.525 30.0417H176.388V39.7858Z" fill="#0A2973"/>
</g>
</svg>
