<svg width="26" height="26" viewBox="0 0 26 26" fill="none" xmlns="http://www.w3.org/2000/svg">
<path fill-rule="evenodd" clip-rule="evenodd" d="M24 10.3659C24 9.77559 23.4555 9.29266 22.79 9.29266H21.343L20.2938 6.8731C20.0331 6.2722 19.2487 5.63561 18.5505 5.45868L18.5503 5.45862L18.5492 5.45835C18.4932 5.44462 16.6811 5 12.9998 5C9.2597 5 7.44918 5.45896 7.44918 5.45896C6.75108 5.63589 5.96678 6.2722 5.7062 6.87338L4.657 9.29269H3.21004C2.5445 9.29269 2 9.77558 2 10.3659C2 10.9561 2.54446 11.4391 3.21004 11.4391H3.72613L3.35384 12.2977C3.09326 12.8983 2.87997 13.9171 2.87997 14.561V19.6342C2.87997 20.3854 3.57301 21 4.41993 21C5.26685 21 5.95988 20.3853 5.95988 19.6342V18.8538H20.0398V19.6342C20.0398 20.3854 20.7329 21 21.5798 21C22.4267 21 23.1197 20.3853 23.1197 19.6342L23.1201 14.561C23.1201 13.9171 22.9066 12.8983 22.6462 12.2975L22.2737 11.4391H22.79C23.4555 11.4391 24 10.956 24 10.3659ZM5.8921 10.6827L7.12791 7.7077C7.21169 7.50626 7.4781 7.34143 7.7201 7.34143H18.2801C18.5221 7.34143 18.7886 7.50625 18.8721 7.70742L20.1079 10.6824C20.1914 10.8839 20.062 11.0487 19.82 11.0487H6.18006C5.93805 11.0487 5.80847 10.8839 5.8921 10.6827ZM8.43396 14.526C8.43396 15.3433 7.69059 16.0058 6.77358 16.0058C5.85658 16.0058 5.11321 15.3433 5.11321 14.526C5.11321 13.7088 5.85658 13.0462 6.77358 13.0462C7.69059 13.0462 8.43396 13.7088 8.43396 14.526ZM19.2264 16.0058C20.1434 16.0058 20.8868 15.3433 20.8868 14.526C20.8868 13.7088 20.1434 13.0462 19.2264 13.0462C18.3094 13.0462 17.566 13.7088 17.566 14.526C17.566 15.3433 18.3094 16.0058 19.2264 16.0058Z" fill="#BE6833"/>
</svg>
