<svg width="265" height="56" viewBox="0 0 265 56" fill="none" xmlns="http://www.w3.org/2000/svg">
<path fill-rule="evenodd" clip-rule="evenodd" d="M233.676 17.0604H238.49L238.461 24.6554H239.507L242.253 17.0604H247.461L243.724 27.0945L248 38.2012H242.365L239.594 29.6983H238.461L238.49 38.1998H233.676V17.0604Z" fill="#3356D7"/>
<path fill-rule="evenodd" clip-rule="evenodd" d="M217.461 17.0604H222.244V24.684H225.669V17.0604H230.45V38.2012H225.669V29.7282H222.244V38.2012H217.461V17.0604Z" fill="#3356D7"/>
<path fill-rule="evenodd" clip-rule="evenodd" d="M200.789 38.2283H205.771L206.367 34.5738H209.789L210.385 38.2283H215.366L211.177 17.0903H205.006L200.789 38.2283ZM208.09 23.4916L208.996 29.9256H207.156L208.09 23.4916Z" fill="#3356D7"/>
<path fill-rule="evenodd" clip-rule="evenodd" d="M187.429 38.1998H193.258C194.531 38.1998 199.826 37.6608 199.854 31.2541C199.854 25.8777 195.751 24.9385 193.09 24.9385H192.212V22.1346H198.693V17.0604H187.429V38.1998ZM192.212 33.9491V29.1607H192.92C193.513 29.1607 195.044 29.1879 195.044 31.3697C195.044 33.5843 193.513 33.9491 192.92 33.9491H192.212Z" fill="#3356D7"/>
<path fill-rule="evenodd" clip-rule="evenodd" d="M168.438 17.0598H172.599L176.274 22.0469L179.986 17.0584H184.118V38.1992H179.217V25.3054L176.274 28.9885L173.333 25.3054V38.1992H168.438V17.0598Z" fill="#3356D7"/>
<path fill-rule="evenodd" clip-rule="evenodd" d="M158.333 38.4577C164.135 38.4577 166.085 33.0133 166.085 27.6029C166.085 22.1924 164.135 16.7493 158.333 16.7493C152.53 16.7493 150.58 22.1924 150.58 27.6029C150.58 33.0133 152.53 38.4564 158.333 38.4564V38.4577ZM158.333 33.3263C156.602 33.3263 155.729 31.316 155.729 27.6029C155.729 23.8884 156.602 21.878 158.333 21.878C160.061 21.878 160.935 23.8884 160.935 27.6029C160.935 31.316 160.061 33.3263 158.333 33.3263Z" fill="#3356D7"/>
<path fill-rule="evenodd" clip-rule="evenodd" d="M136.395 38.1992H141.291V31.2303H142.936C147.772 31.2303 149.274 26.8652 149.274 24.0844C149.274 21.3649 147.547 17.0584 142.936 17.0584H136.395V38.1992ZM141.291 21.7066H142.453C143.557 21.7066 144.266 22.3871 144.266 24.143C144.266 26.4106 143.076 26.5794 142.453 26.5794H141.293V21.7066H141.291Z" fill="#3356D7"/>
<path fill-rule="evenodd" clip-rule="evenodd" d="M120.233 17.0604H133.593V38.1984H128.695V22.1605H125.131V38.1998H120.233V17.0604Z" fill="#3356D7"/>
<path fill-rule="evenodd" clip-rule="evenodd" d="M110.185 25.2524C110.976 25.2524 112.422 24.7406 112.422 23.1835C112.422 21.3419 110.753 21.2262 110.269 21.2262C109.705 21.2262 108.63 21.3133 107.582 21.8238L107.526 17.23C108.919 16.8584 110.355 16.6776 111.797 16.6924C115.82 16.6924 117.603 19.499 117.603 22.2457C117.603 24.9108 116.072 26.5223 114.574 27.1484V27.3458C116.016 27.8031 117.942 29.1874 117.942 32.42C117.942 36.4176 115.168 38.6267 111.601 38.6267C109.705 38.5995 108.459 38.3449 106.959 37.5242L107.044 33.1278C108.432 33.7267 109.365 33.7811 110.299 33.7811C111.885 33.7811 112.505 32.616 112.505 31.7694C112.505 30.5784 111.744 29.7849 110.073 29.7849H108.092V25.2524H110.186H110.185Z" fill="#3356D7"/>
<path fill-rule="evenodd" clip-rule="evenodd" d="M90.9412 38.1992H95.8921L96.5164 34.5419H99.9413L100.534 38.1992H105.485L101.296 17.0584H95.1277L90.9412 38.1992ZM98.2125 23.4352L99.1483 29.8964H97.2781L98.2125 23.4366V23.4352Z" fill="#3356D7"/>
<path fill-rule="evenodd" clip-rule="evenodd" d="M81.4598 17.0604H91.5032V22.3279H86.438V38.1984H81.4598V17.0604Z" fill="#3356D7"/>
<path fill-rule="evenodd" clip-rule="evenodd" d="M40.4989 3C26.9845 3 16 13.9883 16 27.5136C16 41.0104 26.9845 52 40.4989 52C53.9834 52 64.9653 41.0104 64.9653 27.5136C64.9653 13.9883 53.9834 3 40.4989 3ZM40.4989 50.775C27.6646 50.775 17.2241 40.3353 17.2241 27.5136C17.2241 14.6647 27.6605 4.225 40.4989 4.225C53.3115 4.225 63.7411 14.6702 63.7411 27.5136C63.7411 40.3326 53.3074 50.775 40.4989 50.775Z" fill="#3356D7"/>
<path fill-rule="evenodd" clip-rule="evenodd" d="M30.4377 12.8455C36.3516 10.2104 43.5713 10.3819 47.4463 12.1105C48.6637 12.6781 49.4825 13.0211 49.8538 13.6976C45.8332 12.6196 44.1058 12.4236 40.7408 12.5066C35.9531 12.5923 29.5849 14.4884 27.1516 15.9379L26.0812 17.2718C29.5849 15.1961 36.1258 13.8418 39.7506 13.7261C43.7971 13.6717 46.9376 14.0392 49.8266 15.0873C49.6538 15.8223 49.2866 16.1911 48.6637 16.5613C37.116 14.5483 30.2935 16.9275 24.1239 20.9509L23.6723 22.2807C30.5506 17.5522 38.9835 16.251 47.1077 17.6666C44.1942 18.6874 40.7122 18.912 37.7975 19.5884C35.307 20.1574 33.9755 20.3275 30.6608 21.4355C27.2971 22.5407 25.3113 23.6731 24.0682 25.1186C23.4738 25.8019 23.0208 26.5927 22.9052 27.4407C22.8535 27.9484 22.8807 28.4071 23.0521 28.8603C23.1881 29.2564 23.501 29.6525 23.8424 30.0486C23.4479 30.7291 23.1024 31.6098 23.6723 32.6306C23.9267 33.1084 24.5768 33.5902 25.2039 34.0489L25.0271 34.5525C24.9427 35.1514 24.8611 35.8592 25.2583 36.4526C25.9343 37.5279 26.7544 38.2398 28.0575 38.9203C28.2574 39.7982 28.5662 40.5046 29.2449 41.1321C30.6893 42.4606 33.917 45.0113 39.6609 45.4101C43.9657 45.6959 47.0505 44.3893 48.2121 43.8217L49.6266 43.0867C47.2219 44.0476 43.1755 44.6152 39.8608 44.3321C35.0486 43.9346 30.7505 40.7905 30.2119 39.8826C30.3792 39.9942 30.6064 40.08 30.8009 40.1657C36.436 42.8866 43.71 44.362 53.0229 40.5645L53.7901 39.8268C45.3231 42.4592 37.9117 42.3775 29.9535 38.2125C30.0419 37.8151 30.2119 37.4707 30.5764 37.1917C32.6126 38.0941 34.5685 38.8359 36.946 39.315C39.7207 39.8268 42.8898 39.9411 45.4959 39.8268C48.1291 39.7138 53.3344 38.4099 55.7976 37.1073C56.022 36.9086 56.1349 36.571 56.3607 36.3424C51.554 38.0941 45.8332 38.9203 42.3825 38.6617C39.0134 38.4099 36.0157 38.0111 32.0508 36.1981C32.819 35.8923 33.6026 35.6269 34.3985 35.4032C37.0031 36.1981 39.6622 36.6772 42.8042 36.8215C45.9202 36.963 53.1929 35.8034 57.7766 33.0281C57.9208 32.6306 58.0609 32.2019 58.0609 32.2019C58.0609 32.2019 51.6913 35.606 44.4771 35.606C41.1067 35.606 39.042 35.1228 37.5145 34.7553C40.9081 34.1306 45.1858 33.6188 49.9925 32.4019C52.4272 31.7772 55.4277 30.3603 56.7878 29.172C57.9467 28.1199 58.8552 26.7588 58.5438 25.3759C58.4826 25.0029 57.9752 24.1291 57.3523 23.8161C57.9467 23.0498 57.8909 22.3978 57.8079 21.8356C57.7494 21.4042 57.5509 20.9264 57.3006 20.5018C56.8931 19.942 56.3698 19.4768 55.7663 19.1379C55.882 18.4846 55.7976 17.9197 55.5406 17.3821C54.9475 16.3613 53.873 15.4847 52.0327 14.5483C51.9484 14.178 51.7199 13.6976 51.3255 13.2171C49.0064 10.9209 45.2116 9.81567 42.0112 9.7585C41.8344 9.75476 41.6576 9.75294 41.4807 9.75306C37.7376 9.75306 34.7344 10.5942 32.8724 11.4626C32.0152 11.8381 31.1993 12.3016 30.4377 12.8455ZM51.8056 15.9379C52.5999 16.4484 53.5058 17.2133 53.616 18.0068C52.7699 17.6924 51.8641 17.3576 50.9868 17.1289C51.2724 16.8159 51.6927 16.3354 51.8042 15.9379H51.8056ZM47.5592 19.4809C48.5249 19.1093 49.1724 18.7146 49.7423 18.26C51.0113 18.5976 52.2 19.0249 53.1685 19.4496C53.0012 19.696 52.0314 20.5929 51.7362 20.5929C51.7208 20.5941 51.7054 20.5913 51.6913 20.5848C50.3366 20.2146 49.1479 19.7599 47.5592 19.4809ZM55.176 20.612C55.9377 21.264 56.1635 21.7172 55.7976 22.4264C55.2903 22.0589 54.749 21.8588 54.1559 21.5757C54.5232 21.2926 54.8632 20.9836 55.176 20.612ZM31.655 23.2199C35.1914 22.1691 39.3263 21.3797 43.0626 20.9264C45.6333 20.612 46.9961 20.8992 49.4321 21.5484C43.1755 23.2199 37.0031 23.7548 31.1151 25.4861C26.3682 26.8663 25.11 28.6044 25.0896 28.6044C22.9923 25.7134 30.265 23.6473 31.655 23.2199ZM34.9956 26.7043C40.2294 25.5719 45.1001 24.8641 47.109 24.3551C49.5437 23.7562 51.2425 23.1913 52.4272 22.6264C52.4843 22.5407 54.4089 23.4744 54.6075 23.6976C53.9573 24.2394 53.0542 24.6953 52.0599 25.0315C49.0894 26.1082 43.6842 27.2406 40.8251 27.6734C37.9389 28.1526 35.5274 28.5173 32.3351 29.3653C30.4921 29.8499 29.2449 30.4161 28.339 31.0123C27.6617 30.6162 27.2645 30.5046 26.6429 29.9914C28.8504 28.1199 33.3525 27.0732 34.9956 26.7043ZM33.6898 31.2981C38.672 30.0731 43.0626 29.8499 49.1193 28.2084C52.0327 27.4407 54.1559 26.6159 55.4875 25.6018C55.6847 25.4276 55.882 25.2874 56.0819 25.1186C57.8365 27.8381 51.2425 29.9356 46.7377 30.9034C44.2473 31.4083 40.7939 32.0304 39.6609 32.2332C36.7229 32.7136 35.7559 32.9695 33.7184 33.5643C32.701 33.1669 31.6809 32.7409 30.7505 32.2577C31.6809 31.8629 32.6996 31.5499 33.6885 31.2981H33.6898ZM26.7857 32.2019C26.5871 32.372 26.3301 32.5435 26.1342 32.7409C25.684 32.4823 25.227 31.9228 25.4541 31.407C25.9071 31.6942 26.2457 31.9228 26.7857 32.2019ZM28.8504 33.254C29.7005 33.6514 30.5764 34.0162 31.3966 34.3851C30.8453 34.5871 30.3158 34.8443 29.8161 35.1528C29.1361 34.7798 28.4832 34.4137 27.8045 34.0162C28.0887 33.7617 28.4546 33.5085 28.8518 33.254H28.8504ZM28.5131 36.228C28.3145 36.5111 28.1703 36.7357 28.0887 37.0216C27.3801 36.4254 27.0373 35.9436 27.0686 35.4032C27.5488 35.7163 28.0289 35.9694 28.5131 36.228Z" fill="#3356D7"/>
</svg>
