<svg width="43" height="40" viewBox="0 0 43 40" fill="none" xmlns="http://www.w3.org/2000/svg">
<path fill-rule="evenodd" clip-rule="evenodd" d="M37.9576 29.5042L37.4317 31.3837L17.1944 19.1015L17.0243 13.6874C17.0243 13.6874 21.3014 16.7193 23.034 18.096C23.4512 18.3861 23.7629 18.8041 23.9219 19.2868C24.081 19.7695 24.0788 20.2908 23.9157 20.7721L33.0501 26.4878L34.539 20.3931L36.5538 22.8991L39.4272 22.9919L40.1581 24.4111H43.0005C43.0005 28.0811 41.6934 29.5739 37.9576 29.5042ZM14.6034 19.3451L19.9208 39.5822C19.9208 39.5822 16.9779 40.897 16.1039 38.422C15.2956 36.1365 11.2776 25.6603 11.2776 25.6603L9.6688 26.3873C9.6688 26.3873 6.27337 35.7923 5.19441 38.4491C4.08452 41.1793 1.28464 39.4739 1.28464 39.4739L6.45126 20.0219L6.22696 14.8205L4.17733 15.3387L2.94368 22.2262C2.94368 22.2262 -0.177175 22.6322 0.00845248 20.0876C0.197947 17.4811 0.518927 12.5118 0.518927 12.5118L7.30979 8.44734C12.109 8.19211 15.3188 9.6075 14.9476 14.8398C14.8393 16.3519 14.6034 19.3451 14.6034 19.3451ZM6.99268 3.64041C6.4474 -0.706324 13.4896 -1.57258 13.4896 3.3117C13.4896 8.25785 7.51862 7.82472 6.99268 3.64041ZM25.8454 27.8491L26.6962 29.9567L30.459 29.0789L36.9289 33.1704L35.5406 38.1358C35.9776 38.1358 36.4571 38.8319 36.4571 39.7214H32.3811L32.2186 35.4211L27.752 35.22L25.7372 38.1436C26.1003 38.2028 26.4265 38.4 26.6477 38.694C26.869 38.988 26.9681 39.3561 26.9244 39.7214H21.6572L24.6505 27.8723L25.8454 27.8491Z" fill="#3F4C1C"/>
</svg>
