<svg width="26" height="26" viewBox="0 0 26 26" fill="none" xmlns="http://www.w3.org/2000/svg">
<path fill-rule="evenodd" clip-rule="evenodd" d="M19.4476 13.8333C18.6366 13.2517 17.6734 12.4594 17.6734 12.4594V9.45098L22 13.1138C21.7998 14.1968 20.535 14.613 19.4476 13.8333ZM12.3228 2.35102C11.9705 -0.45687 16.581 -1.01845 16.581 2.14795C16.581 5.35948 12.665 5.07117 12.3228 2.35102ZM16.3782 6.46007L16.548 15.3375L21.1737 25.3657C20.6186 26.0025 19.1663 26.3209 18.4541 25.0599C16.7888 22.1141 11.9756 13.5149 11.9756 13.5149L11.3876 9.41087L9.7426 9.94738L8.92899 14.4124C8.92899 14.4124 6.88356 14.6631 7.00522 13.0235C7.13449 11.3338 7.34486 8.11723 7.34486 8.11723L11.7956 5.47731C14.8422 5.24416 16.3909 6.4701 16.3909 6.4701L16.3782 6.46007ZM11.309 15.1821L13.2049 18.534L9.46126 26C8.53866 26 7.25361 25.1326 7.86445 23.676C8.44995 22.2871 11.3242 15.1921 11.3242 15.1921L11.309 15.1821Z" fill="#465587"/>
</svg>
