<svg width="24" height="40" viewBox="0 0 24 40" fill="none" xmlns="http://www.w3.org/2000/svg">
<path fill-rule="evenodd" clip-rule="evenodd" d="M19.9167 21.282C18.619 20.3872 17.0779 19.1684 17.0779 19.1684V14.54L24.0005 20.175C23.6801 21.8413 21.6565 22.4815 19.9167 21.282ZM8.51703 3.61696C7.95334 -0.702877 15.3301 -1.56684 15.3301 3.30454C15.3301 8.24535 9.06451 7.8018 8.51703 3.61696ZM15.0056 9.93857L15.2774 23.5962L22.6784 39.0242C21.7903 40.0039 19.4666 40.4937 18.327 38.5536C15.6626 34.0217 7.96144 20.7922 7.96144 20.7922L7.0206 14.4783L4.38865 15.3037L3.08688 22.173C3.08688 22.173 -0.185818 22.5587 0.00883995 20.0362C0.215664 17.4366 0.552261 12.488 0.552261 12.488L7.67351 8.42663C12.5481 8.06793 15.0259 9.954 15.0259 9.954L15.0056 9.93857ZM6.89488 23.3571L9.92831 28.5139L3.93851 40C2.46235 40 0.406267 38.6655 1.38361 36.4246C2.32041 34.2878 6.91921 23.3725 6.91921 23.3725L6.89488 23.3571Z" fill="#3F4C1C"/>
</svg>
