<svg width="265" height="56" viewBox="0 0 265 56" fill="none" xmlns="http://www.w3.org/2000/svg">
<path d="M134.949 15H128.001V43.9998H134.188V24.8687H134.569L141.137 35.9063H144.444L150.995 24.8687H151.376V43.9998H157.619V15H150.782L142.915 28.1597L134.949 15Z" fill="#DD0A34"/>
<path d="M170.573 15H164.3V43.9998H170.569V31.6221H173.705L182.354 43.9998H190.534L178.961 28.5465L189.516 15H181.675L173.654 25.6904L170.56 26.0375L170.573 15Z" fill="#DD0A34"/>
<path fill-rule="evenodd" clip-rule="evenodd" d="M195.081 15H217.636L212.081 20.8439H201.398V25.3433H207.897C209.398 25.322 210.895 25.5112 212.346 25.9057C213.629 26.2422 214.838 26.83 215.906 27.6369C216.854 28.4139 217.635 29.3869 218.196 30.4929C218.738 31.7917 219.012 33.1922 219 34.6056C219.008 35.9902 218.734 37.3612 218.196 38.6305C217.614 39.7586 216.823 40.7589 215.867 41.5743C214.811 42.3928 213.619 43.0091 212.35 43.3933C210.901 43.8032 209.404 44.0072 207.901 43.9998H195.081V15ZM201.398 31.016V38.2L207.919 38.1956C209.487 38.1956 210.67 37.8485 211.435 37.2421C211.818 36.9273 212.125 36.5252 212.331 36.0678C212.538 35.6103 212.637 35.1099 212.624 34.6058C212.656 34.0992 212.564 33.5926 212.356 33.1321C212.148 32.6714 211.832 32.2718 211.435 31.9695C210.654 31.3191 209.53 31.016 208.089 31.016H201.398Z" fill="#DD0A34"/>
<path d="M89.0706 15.0308L74.9945 29.4999L67.9608 22.2631L75.003 15H60.9141L54 22.2631L75.1441 43.9998L93.1943 25.2906H103.997L113.975 15.0308H89.0706Z" fill="#DD0A34"/>
<path d="M78.0444 43.6883L80.0657 41.632L93.9793 27.3034H113.983L103.996 37.5588H98.1288L92.1888 43.6883H78.0444Z" fill="#DD0A34"/>
</svg>
