<svg width="265" height="56" viewBox="0 0 265 56" fill="none" xmlns="http://www.w3.org/2000/svg">
<path fill-rule="evenodd" clip-rule="evenodd" d="M38 33.7722C38 39.8606 41.3964 46 49.0018 46C56.6003 46 60.0033 39.8606 60.0033 33.7722C60.0033 29.6138 58.6076 24.8253 56.2784 20.9567C54.0132 17.2216 51.2913 15 49.0018 15C46.7054 15 43.9828 17.2216 41.7371 20.9567C39.3964 24.8253 38 29.6138 38 33.7722ZM116.112 24.1341H108.411V16.6608H132.064V24.1341H124.363L124.363 44.3393H116.112L116.112 24.1341ZM149.663 24.1342H161.766V16.6609H149.665C138.545 16.6609 132.608 22.2243 132.608 30.5002C132.608 38.7761 138.545 44.3395 149.665 44.3395H161.766V36.8662H149.663C144.518 36.8662 141.134 35.0152 141.134 30.5002C141.134 25.9851 144.518 24.1342 149.663 24.1342ZM87.2279 33.1818L91.6268 16.6609H106.207V44.3395H97.9566V21.8118L91.9583 44.3395H82.4977L76.5033 21.8259V44.3395H68.2519V16.6609H82.829L87.2279 33.1818ZM176.816 24.6837H173.906V27.3912H176.816C177.553 27.3912 177.992 27.0104 177.992 26.3081V25.8066C177.992 25.0845 177.613 24.6837 176.816 24.6837ZM177.553 30.5002H170.019V16.6605H181.1V19.9703H173.906V21.7751H177.553C180.602 21.7751 182.077 23.2995 182.077 25.9871C182.077 28.8153 180.602 30.5002 177.553 30.5002ZM191.043 24.8438H187.974L189.508 19.7297L191.043 24.8438ZM196.942 30.5002L192.697 16.6609H186.917L182.672 30.5002H186.3L187.077 27.8525H191.94L192.737 30.5002H196.942ZM206.766 30.5002V25.145H202.322V30.5002H198.336V16.6609H202.322V21.7353H206.766V16.6609H210.753V30.5002H206.766ZM217.829 21.7351H217.131V16.6608H213.144V30.5H217.131V25.1449H217.708L221.396 30.5H226L221.018 23.2596L225.602 16.6608H221.396L217.829 21.7351Z" fill="#E30611"/>
</svg>
