<svg width="265" height="56" viewBox="0 0 265 56" fill="none" xmlns="http://www.w3.org/2000/svg">
<path d="M108.268 4.99805V5.00656L104.081 9.06596V4.99805H99.8935V4.99848V4.99805L92.9155 11.7626V29.3507H95.7067V13.116L101.29 7.70407V29.3507H104.081V13.116L109.663 7.70407V29.3507H112.455V4.99805H108.268Z" fill="#1E2321"/>
<path d="M65.0017 29.3514H76.1674V4.99877H71.9796V4.99935L71.9792 4.99805L65 11.7635L65.0017 11.7651V29.3514ZM73.3758 7.70479V26.6455H67.7932V13.1164L73.3758 7.70479Z" fill="#1E2321"/>
<path d="M90.1238 4.99805H78.9585V29.3506H90.1238V4.99805ZM81.7496 7.70393H87.3323V26.645H81.7496V7.70393Z" fill="#1E2321"/>
<path d="M65.0024 34.7647H112.456V32.0586H65.0024V34.7647Z" fill="#1E2321"/>
<path d="M65.0024 37.4707V50.9998H67.794V48.2942H84.5422V37.4707H65.0024ZM81.7507 45.5882H67.794V40.1767H81.7507V45.5882Z" fill="#1E2321"/>
<path d="M87.3335 37.4707V48.2942H98.4992V50.9998H101.29V48.2942H112.456V37.4707H87.3335ZM90.1246 40.1767H98.4988V45.5882H90.1246V40.1767ZM109.664 45.5882H101.29V40.1767H109.664V45.5882Z" fill="#1E2321"/>
<path d="M156.561 35.4393H151.545V23.2656H159.833V25.3853H153.992V27.8468H156.561C159.077 27.8468 160.625 29.4217 160.625 31.6433C160.625 33.8668 159.095 35.4393 156.561 35.4393ZM156.438 29.9682H153.992V33.3204H156.438C157.528 33.3204 158.179 32.6534 158.179 31.6433C158.179 30.6525 157.528 29.9682 156.438 29.9682Z" fill="#1E2321"/>
<path d="M171.083 35.4393L170.343 33.2859H165.891L165.133 35.4393H162.583L167.141 23.2656H169.058L173.634 35.4393H171.083ZM168.161 26.8565L166.577 31.2846H169.691L168.161 26.8565Z" fill="#1E2321"/>
<path d="M182.886 35.4393V30.343H178.646V35.4393H176.201V23.2656H178.646V28.2403H182.886V23.2656H185.333V35.4393H182.886Z" fill="#1E2321"/>
<path d="M189.164 35.4393V23.2656H191.609V29.0452L195.657 23.2656H198.579L194.372 28.9774L199 35.4393H196.01L191.609 29.0784V35.4393H189.164Z" fill="#1E2321"/>
<path d="M134.785 50.9949H131.994V5.00586H134.785V50.9949Z" fill="#7FCB2C"/>
</svg>
