<svg width="265" height="56" viewBox="0 0 265 56" fill="none" xmlns="http://www.w3.org/2000/svg">
<path d="M43.462 7C31.5936 7 22 16.6106 22 28.5C22 40.3894 31.5936 50 43.462 50C55.3304 50 64.924 40.3894 64.924 28.5C64.8251 16.6106 55.2315 7 43.462 7ZM40.396 37.6152L38.8135 42.2719C32.8794 40.2903 28.9232 34.6429 28.9232 28.3018C28.9232 21.9608 32.8794 16.4124 38.9125 14.3318L40.4949 18.9885C36.5388 20.2765 33.9673 24.0415 33.9673 28.2028C33.8684 32.6613 36.4399 36.3272 40.396 37.6152ZM47.7148 42.47L46.2313 37.7143C50.2863 36.4263 52.9567 32.6613 52.9567 28.4009C52.9567 24.1406 50.2863 20.4747 46.3302 19.1866L47.9126 14.4309C53.9457 16.4124 58.0008 22.0599 58.0008 28.4009C58.0008 34.841 53.8468 40.4885 47.7148 42.47Z" fill="#00BEF0"/>
<path d="M239.884 32.3637L242.258 35.237C239.785 37.813 236.719 38.5065 234.247 38.5065C231.873 38.5065 230.191 38.1102 228.708 37.4167C225.543 35.8314 223.961 32.6609 223.961 28.7969C223.961 22.9512 227.917 18.5918 233.752 18.5918C240.28 18.5918 243.445 23.4466 242.95 29.7876H228.115C228.213 31.3729 229.104 32.8591 230.389 33.6517C231.477 34.3453 232.763 34.6425 234.444 34.6425C236.323 34.6425 238.203 34.048 239.884 32.3637ZM228.312 26.3199H238.796C238.499 24.0411 236.62 22.0595 233.653 22.0595C230.488 22.1586 228.609 24.2393 228.312 26.3199ZM128.618 38.0111H133.959L125.552 28.2024L133.86 18.9881H128.618L122.288 26.3199H120.409V18.9881H116.354V37.9121H120.409V30.3821H122.288L128.618 38.0111ZM146.124 22.4558C142.662 22.4558 140.387 25.131 140.387 28.4996C140.387 31.8683 142.662 34.5434 146.124 34.5434C149.585 34.5434 151.761 31.9674 151.761 28.4996C151.761 25.131 149.684 22.4558 146.124 22.4558ZM146.816 18.5918C152.157 18.5918 156.113 22.7531 156.113 28.4996C156.113 34.1471 152.256 38.5065 146.816 38.5065C144.245 38.5065 142.168 37.6148 140.684 36.0296V45.9374H136.53V18.9881H140.585V21.2669C142.168 19.3844 144.146 18.5918 146.816 18.5918ZM200.619 18.9881H183.707V22.7531H190.136V37.9121H194.29V22.8522H200.718V18.9881H200.619ZM113.486 18.9881H96.5732V22.7531H103.002V37.9121H107.156V22.8522H113.585V18.9881H113.486ZM91.5292 28.4996C91.5292 24.9328 89.0566 22.3568 85.595 22.3568C82.2323 22.3568 79.6608 24.9328 79.6608 28.4996C79.6608 32.0665 82.1334 34.6425 85.595 34.6425C88.9577 34.6425 91.5292 32.0665 91.5292 28.4996ZM75.5068 28.4996C75.5068 22.8522 79.8586 18.5918 85.6939 18.5918C91.4303 18.5918 95.8809 22.8522 95.8809 28.4996C95.8809 34.1471 91.5292 38.5065 85.6939 38.5065C79.8586 38.5065 75.5068 34.1471 75.5068 28.4996ZM220.697 18.9881V37.9121H216.642V25.7254L206.751 37.9121H203.488V18.9881H207.543V31.2738L217.433 19.0872H220.697V18.9881ZM180.938 38.0111H176.883V18.9881H180.938V38.0111ZM170.355 31.472C170.355 29.7876 169.168 28.5987 167.586 28.5987H163.432V34.4443H167.586C169.168 34.4443 170.355 33.2554 170.355 31.472ZM174.509 31.472C174.509 35.237 171.74 37.9121 167.784 37.9121H159.377V18.9881H163.432V25.131H168.08C172.036 25.131 174.509 27.707 174.509 31.472Z" fill="black"/>
</svg>
