<svg width="265" height="56" viewBox="0 0 265 56" fill="none" xmlns="http://www.w3.org/2000/svg">
<path d="M207.736 20.1992H218.729V23.6312H211.846V27.1366H214.145C215.688 27.1366 217.661 27.3272 219.159 28.7792C219.797 29.4099 220.598 30.5686 220.598 32.4459C220.598 33.9566 220.094 35.2912 219.159 36.2152C217.854 37.5059 215.955 37.7992 213.789 37.7992H207.736V20.1992ZM213.478 34.5286C214.041 34.5286 215.05 34.4699 215.688 33.9712C215.896 33.7806 216.385 33.3112 216.385 32.4166C216.385 31.5659 215.955 31.0379 215.584 30.7739C214.946 30.3192 213.908 30.3046 213.478 30.3046H211.846V34.5286H213.478Z" fill="#2B2D34"/>
<path d="M231.665 26.0366H235.507V37.7993H231.665V36.3766C230.627 37.9606 229.128 38.1953 228.149 38.1953C226.443 38.1953 225.004 37.77 223.699 36.406C222.438 35.086 221.963 33.5606 221.963 32.006C221.963 30.026 222.705 28.3393 223.802 27.254C224.841 26.2273 226.28 25.6406 227.941 25.6406C228.95 25.6406 230.582 25.8753 231.68 27.3566V26.0366H231.665ZM226.784 29.7473C226.384 30.1433 225.909 30.8326 225.909 31.8886C225.909 32.9446 226.369 33.634 226.71 34.0006C227.244 34.558 228.075 34.9246 228.98 34.9246C229.751 34.9246 230.478 34.602 230.983 34.1033C231.487 33.634 231.917 32.886 231.917 31.8886C231.917 31.038 231.591 30.246 231.042 29.718C230.449 29.1606 229.603 28.8966 228.906 28.8966C228.075 28.9113 227.289 29.2486 226.784 29.7473Z" fill="#2B2D34"/>
<path d="M237.836 26.0371H241.679V30.1291H245.981V26.0371H249.823V37.7998H245.981V33.1798H241.679V37.7998H237.836V26.0371Z" fill="#2B2D34"/>
<path d="M252.138 26.0371H255.98V30.7011L259.882 26.0371H264.659L259.555 31.4931L265 37.7998H260.03L255.98 32.5784V37.7998H252.138V26.0371Z" fill="#2B2D34"/>
<path d="M58.1981 20.1992C59.741 20.1992 61.447 20.4046 62.8712 21.6512C64.3992 22.9712 64.6069 24.7166 64.6069 25.9192C64.6069 28.1339 63.7465 29.3806 63.0789 30.0552C61.6695 31.4779 59.8003 31.6099 58.5393 31.6099H56.0322V37.7992H51.9229V20.1992H58.1981ZM56.0322 28.2952H57.5009C58.0646 28.2952 59.0437 28.2659 59.7113 27.6352C60.0822 27.2686 60.3789 26.6526 60.3789 25.8899C60.3789 25.1566 60.1118 24.5406 59.7113 24.1739C59.1031 23.5872 58.213 23.5139 57.4119 23.5139H56.0173V28.2952H56.0322Z" fill="#2B2D34"/>
<path d="M74.6353 26.0366H78.4776V37.7993H74.6353V36.3766C73.5968 37.9606 72.0985 38.1953 71.1194 38.1953C69.4133 38.1953 67.9743 37.77 66.6688 36.406C65.4078 35.086 64.9331 33.5606 64.9331 32.006C64.9331 30.026 65.6749 28.3393 66.7727 27.254C67.8111 26.2273 69.2501 25.6406 70.9117 25.6406C71.9205 25.6406 73.5523 25.8753 74.6501 27.3566V26.0366H74.6353ZM69.7545 29.7473C69.354 30.1433 68.8793 30.8326 68.8793 31.8886C68.8793 32.9446 69.3391 33.634 69.6803 34.0006C70.2144 34.558 71.0452 34.9246 71.9501 34.9246C72.7216 34.9246 73.4485 34.602 73.9529 34.1033C74.4573 33.634 74.8875 32.886 74.8875 31.8886C74.8875 31.038 74.5611 30.246 74.0122 29.718C73.4188 29.1606 72.5732 28.8966 71.8759 28.8966C71.0303 28.9113 70.2589 29.2486 69.7545 29.7473Z" fill="#2B2D34"/>
<path d="M84.6489 26.0365V32.7685L89.7225 26.0365H93.2978V37.7991H89.4555V30.9645L84.3819 37.7991H80.8066V26.0365H84.6489ZM91.8736 21.2845C91.5473 22.2378 90.9094 23.0591 90.1676 23.5285C89.1588 24.1885 87.9275 24.2618 87.0522 24.2618C86.177 24.2618 84.9456 24.1885 83.9369 23.5285C83.1951 23.0591 82.5423 22.2378 82.2308 21.2845L84.9011 20.2578C85.005 20.7858 85.272 21.2111 85.5984 21.4751C85.9396 21.7685 86.3995 21.9445 87.0671 21.9445C87.7346 21.9445 88.1945 21.7538 88.5357 21.4751C88.8621 21.2111 89.1291 20.7858 89.233 20.2578L91.8736 21.2845Z" fill="#2B2D34"/>
<path d="M101.784 43.6659V37.9899H101.62C98.9205 37.9899 97.437 36.8752 96.7397 36.2152C95.8793 35.3939 95.0337 34.0005 95.0337 31.8592C95.0337 29.5419 96.1018 28.0605 97.0958 27.2685C98.2677 26.3445 100.033 25.8459 101.606 25.8459H101.799V20.1992H105.641V25.8459H105.834C107.406 25.8459 109.172 26.3445 110.344 27.2685C111.338 28.0605 112.406 29.5419 112.406 31.8592C112.406 34.0005 111.545 35.3939 110.7 36.2152C110.002 36.8752 108.504 37.9899 105.819 37.9899H105.626V43.6659H101.784ZM101.962 28.9112C101.057 28.8525 100.122 29.1752 99.5584 29.7325C99.0985 30.1872 98.787 30.9499 98.787 31.8739C98.787 32.7979 99.1134 33.5605 99.5584 34.0445C100.063 34.6019 100.968 34.9685 101.962 34.9392V28.9112ZM105.433 34.9245C106.427 34.9539 107.332 34.5872 107.836 34.0299C108.296 33.5605 108.608 32.7832 108.608 31.8592C108.608 30.9352 108.281 30.1725 107.836 29.7179C107.273 29.1605 106.338 28.8525 105.433 28.8965V34.9245Z" fill="#2B2D34"/>
<path d="M120.283 43.6659V37.9899H120.12C117.42 37.9899 115.936 36.8752 115.239 36.2152C114.379 35.3939 113.533 34.0005 113.533 31.8592C113.533 29.5419 114.601 28.0605 115.595 27.2685C116.767 26.3445 118.533 25.8459 120.105 25.8459H120.298V20.1992H124.14V25.8459H124.333C125.906 25.8459 127.671 26.3445 128.843 27.2685C129.837 28.0605 130.905 29.5419 130.905 31.8592C130.905 34.0005 130.045 35.3939 129.199 36.2152C128.502 36.8752 127.004 37.9899 124.318 37.9899H124.155V43.6659H120.283ZM120.461 28.9112C119.556 28.8525 118.622 29.1752 118.058 29.7325C117.598 30.1872 117.286 30.9499 117.286 31.8739C117.286 32.7979 117.613 33.5605 118.058 34.0445C118.562 34.6019 119.467 34.9685 120.461 34.9392V28.9112ZM123.933 34.9245C124.927 34.9539 125.832 34.5872 126.336 34.0299C126.796 33.5605 127.107 32.7832 127.107 31.8592C127.107 30.9352 126.781 30.1725 126.336 29.7179C125.772 29.1605 124.838 28.8525 123.933 28.8965V34.9245Z" fill="#2B2D34"/>
<path d="M141.735 26.0366H145.577V37.7993H141.735V36.3766C140.696 37.9606 139.198 38.1953 138.219 38.1953C136.513 38.1953 135.074 37.77 133.768 36.406C132.507 35.086 132.033 33.5606 132.033 32.006C132.033 30.026 132.774 28.3393 133.872 27.254C134.911 26.2273 136.35 25.6406 138.011 25.6406C139.02 25.6406 140.652 25.8753 141.75 27.3566V26.0366H141.735ZM136.854 29.7473C136.454 30.1433 135.979 30.8326 135.979 31.8886C135.979 32.9446 136.439 33.634 136.78 34.0006C137.314 34.558 138.145 34.9246 139.05 34.9246C139.821 34.9246 140.548 34.602 141.052 34.1033C141.557 33.634 141.987 32.886 141.987 31.8886C141.987 31.038 141.661 30.246 141.112 29.718C140.518 29.1606 139.673 28.8966 138.976 28.8966C138.13 28.9113 137.359 29.2486 136.854 29.7473Z" fill="#2B2D34"/>
<path d="M151.749 26.0365V32.7685L156.822 26.0365H160.397V37.7991H156.555V30.9645L151.482 37.7991H147.906V26.0365H151.749ZM158.973 21.2845C158.647 22.2378 158.009 23.0591 157.267 23.5285C156.258 24.1885 155.027 24.2618 154.152 24.2618C153.277 24.2618 152.045 24.1885 151.036 23.5285C150.295 23.0591 149.642 22.2378 149.33 21.2845L152.001 20.2578C152.105 20.7858 152.372 21.2111 152.698 21.4751C153.039 21.7685 153.499 21.9445 154.167 21.9445C154.834 21.9445 155.294 21.7538 155.635 21.4751C155.962 21.2111 156.229 20.7858 156.333 20.2578L158.973 21.2845Z" fill="#2B2D34"/>
<path d="M162.311 27.033C162.816 26.7103 163.646 26.2997 164.284 26.0503C165.189 25.7277 166.183 25.625 167.088 25.625C167.726 25.625 169.922 25.6837 171.123 26.8423C171.791 27.473 171.999 28.221 171.999 29.013C171.999 29.7463 171.865 30.4063 171.272 31.0223C170.975 31.3157 170.634 31.5503 170.263 31.6823C171.138 31.8877 171.702 32.3717 171.865 32.533C172.458 33.0903 172.666 33.721 172.666 34.4837C172.666 35.305 172.399 36.1703 171.628 36.933C170.619 37.9157 169.224 38.1943 167.251 38.1943C166.183 38.1943 165.056 38.0623 164.002 37.6663C162.964 37.2703 162.193 36.6837 161.866 36.4197L163.498 33.9117C163.928 34.2783 164.492 34.645 164.967 34.865C165.471 35.0703 166.198 35.2317 166.806 35.2317C167.237 35.2317 167.815 35.1583 168.201 34.9383C168.661 34.6743 168.735 34.3077 168.735 34.0437C168.735 33.6477 168.527 33.413 168.171 33.2517C167.845 33.1197 167.207 33.0463 166.777 33.0463H165.338V30.465H166.435C166.777 30.465 167.504 30.4063 167.874 30.2597C168.334 30.0543 168.438 29.7023 168.438 29.4677C168.438 29.2623 168.334 28.9103 167.845 28.705C167.652 28.6317 167.281 28.4997 166.643 28.4997C166.035 28.4997 165.575 28.6023 165.071 28.8223C164.566 29.0277 164.166 29.277 163.795 29.585L162.311 27.033Z" fill="#2B2D34"/>
<path d="M186.596 32.578H177.71C177.71 33.2086 177.948 34.0593 178.437 34.5873C179.031 35.218 179.832 35.3206 180.41 35.3206C180.974 35.3206 181.553 35.218 181.953 34.9833C182.012 34.954 182.457 34.6606 182.784 34.0006L186.418 34.3673C185.884 36.0246 184.816 36.9046 184.119 37.33C182.977 38.0193 181.686 38.1953 180.351 38.1953C178.556 38.1953 176.983 37.8726 175.604 36.5086C174.565 35.482 173.809 33.9273 173.809 31.9766C173.809 30.29 174.417 28.5446 175.618 27.3273C177.057 25.9046 178.853 25.6406 180.188 25.6406C181.523 25.6406 183.437 25.8753 184.905 27.4153C186.315 28.8966 186.582 30.7446 186.582 32.1966V32.578H186.596ZM183.051 30.3046C183.021 30.202 182.843 29.454 182.279 28.926C181.849 28.53 181.241 28.266 180.47 28.266C179.476 28.266 178.897 28.662 178.526 29.0286C178.229 29.3513 177.962 29.762 177.859 30.29H183.051V30.3046Z" fill="#2B2D34"/>
<path d="M188.332 26.0371H192.174V30.1291H196.477V26.0371H200.319V37.7998H196.477V33.1798H192.174V37.7998H188.332V26.0371Z" fill="#2B2D34"/>
<path d="M0 43.6667V14.3333C0 10.2853 3.32307 7 7.41757 7H37.0878C41.1823 7 44.5054 10.2853 44.5054 14.3333V43.6667C44.5054 47.7147 41.1823 51 37.0878 51H7.41757C3.32307 51 0 47.7147 0 43.6667Z" fill="#FFE600"/>
<path d="M28.617 26.8603V22.6656L30.1451 21.1403V24.7923L31.4802 26.1123L36.8505 20.803L38.1857 22.123C38.1709 21.1256 37.978 18.2656 35.5154 15.875C32.8599 13.3523 29.9967 14.4963 29.0176 15.4643L23.6473 20.7736L25.0121 22.123L22.2528 24.851L19.4786 22.1083L20.8434 20.759L15.4731 15.4496C14.5088 14.4816 11.6308 13.3376 8.99015 15.8603C6.52752 18.251 6.31982 21.1256 6.31982 22.1083L7.65499 20.7883L13.0253 26.0976L14.3605 24.7776V21.1403L15.8885 22.6656V26.8603L18.0544 29.0016L7.41762 39.5176L11.616 43.6683L22.2528 33.1523L32.8896 43.6683L37.0879 39.5176L26.4511 29.0016L28.617 26.8603Z" fill="#2B2D34"/>
</svg>
