<svg width="265" height="56" viewBox="0 0 265 56" fill="none" xmlns="http://www.w3.org/2000/svg">
<g clip-path="url(#clip0_1120_641)">
<path d="M92.8871 18.8743C93.6747 18.7963 94.4701 18.8784 95.2247 19.1156C95.9793 19.3529 96.6775 19.7403 97.2766 20.2543C97.8756 20.7683 98.3632 21.3981 98.7094 22.1053C99.0556 22.8126 99.2534 23.5824 99.2905 24.3681V25.0906C99.2905 28.8496 96.8168 31.018 92.8871 31.018H85.0303V37.0903H81.6812V18.8743H92.8871ZM93.0329 27.8375C93.7445 27.8849 94.4468 27.6546 94.9902 27.1956C95.5337 26.7365 95.8755 26.085 95.9431 25.3794V24.9457C96.0177 24.1793 95.7843 23.4147 95.2937 22.8187C94.8031 22.2227 94.0952 21.8437 93.3244 21.7643H84.8829V27.8366L93.0329 27.8375Z" fill="black"/>
<path d="M111.492 37.3852C105.672 37.3852 100.871 33.4822 100.871 27.8411C100.871 22.1999 105.673 18.2969 111.492 18.2969C117.311 18.2969 122.113 22.1999 122.113 27.8411C122.113 33.4822 117.311 37.3852 111.492 37.3852ZM111.492 21.3376C109.738 21.2098 108.004 21.7764 106.668 22.914C105.333 24.0515 104.504 25.6677 104.363 27.4099V27.8461C104.363 31.6052 107.127 34.352 111.492 34.352C115.856 34.352 118.621 31.6052 118.621 27.8461C118.621 24.087 115.856 21.3401 111.492 21.3401" fill="black"/>
<path d="M135.759 37.3824C129.648 37.3824 125.138 33.4793 125.138 27.8382C125.138 22.1971 129.794 18.294 135.759 18.294C138.812 18.1809 141.804 19.1551 144.198 21.0409L142.452 23.6521C140.582 22.1914 138.282 21.379 135.904 21.3389C131.394 21.3389 128.63 24.0858 128.63 27.7017C128.63 31.3176 131.394 34.2077 135.904 34.2077C138.316 34.2436 140.67 33.4807 142.597 32.0393L144.342 34.6413C141.841 36.4262 138.839 37.385 135.759 37.3824Z" fill="black"/>
<path d="M172.221 32.4646L170.184 36.8013H166.547L175.422 18.7344H178.914L187.788 36.8055H184.151L182.114 32.4688L172.221 32.4646ZM173.676 29.5729H180.66L177.169 22.1996L173.676 29.5729Z" fill="black"/>
<path d="M205.539 36.9462V29.1392H193.608V36.9462H190.262V18.875H193.609V26.2483H205.539V18.875H208.883V36.9462H205.539Z" fill="black"/>
<path d="M213.977 36.9462V18.875H217.323V27.2597L226.489 18.875H230.563L221.251 27.5493L230.996 36.9462H226.486L217.323 28.1278V36.9462H213.977Z" fill="black"/>
<path d="M159.026 25.3843H151.169V21.6253H164.118V18.7344H147.678V36.8055H158.884C162.812 36.8055 165.576 34.6372 165.576 31.0229C165.576 27.4087 163.102 25.3843 159.029 25.3843H159.026ZM159.319 33.769H151.172V28.4209H159.319C161.357 28.4209 162.666 29.5771 162.666 31.1678C162.666 32.7585 161.647 33.9147 159.319 33.7698" fill="black"/>
<path d="M69.987 10.043H33.4683V28.5478H69.987V10.043Z" fill="#E9041E"/>
<path d="M69.987 27.6348H33.4683V45.7059H69.987V27.6348Z" fill="black"/>
<path d="M63.4531 26.6602H39.7378V28.8285H63.4531V26.6602Z" fill="white"/>
</g>
<defs>
<clipPath id="clip0_1120_641">
<rect width="198" height="36" fill="white" transform="translate(33 10)"/>
</clipPath>
</defs>
</svg>
