<svg width="264" height="56" viewBox="0 0 264 56" fill="none" xmlns="http://www.w3.org/2000/svg">
<path d="M156.779 46.3435C156.554 47.0201 156.076 47.0471 155.841 47.0471C155.627 47.0471 150.278 47.0355 150.278 47.0355V40.8153H155.656V39.0138H150.278V33.7215C150.278 33.7215 155.562 33.7137 155.743 33.7137C155.982 33.7137 156.46 33.7408 156.681 34.4173H157.253V31.9238H147.682V32.5308C147.87 32.6004 147.997 32.697 148.094 32.8014C148.305 33.0604 148.33 33.4006 148.341 33.5282V47.2327C148.323 47.4144 148.305 47.8976 147.703 48.2185C147.696 48.2185 147.693 48.2223 147.682 48.2262V48.2301V48.837H157.347V46.3435H156.779Z" fill="black"/>
<path d="M181.578 46.3435C181.353 47.0201 180.875 47.0471 180.636 47.0471C180.423 47.0471 175.077 47.0355 175.077 47.0355V40.8153H180.455V39.0138H175.077V33.7215C175.077 33.7215 180.361 33.7137 180.546 33.7137C180.781 33.7137 181.259 33.7408 181.48 34.4173H182.049V31.9238H172.481V32.5308C172.666 32.6004 172.796 32.697 172.89 32.8014C173.104 33.0604 173.126 33.4006 173.136 33.5282V47.2327C173.118 47.4144 173.1 47.8976 172.499 48.2185C172.492 48.2185 172.488 48.2223 172.481 48.2262V48.2301V48.837H182.146V46.3435H181.578Z" fill="black"/>
<path d="M144.846 32.5307V31.9199H132.359V32.5307C132.989 32.7704 133.015 33.2768 133.018 33.532C133.018 33.9031 133.018 46.8576 133.018 47.2249C133.018 47.4801 132.989 47.9865 132.359 48.2262V48.837H135.608V48.23C134.974 47.9903 134.949 47.4839 134.949 47.2288C134.949 46.9852 134.952 33.733 134.952 33.733H142.253C142.253 33.733 142.249 46.8576 142.249 47.2288C142.249 47.4839 142.228 47.9903 141.594 48.23V48.8408H144.846V48.23C144.209 47.9903 144.187 47.4839 144.187 47.2288C144.187 46.9852 144.187 33.791 144.187 33.5359C144.187 33.2807 144.212 32.7704 144.846 32.5307Z" fill="black"/>
<path d="M42.8026 20.4269C40.5537 27.2385 33.5608 30.8106 27.1799 28.4099C20.799 26.0053 17.4492 18.5442 19.7017 11.7287C21.9506 4.91699 28.9435 1.34492 35.3244 3.74563C41.7017 6.1502 45.0515 13.6152 42.8026 20.4269Z" fill="url(#paint0_linear_1120_600)"/>
<path d="M43.4976 37.375L43.5012 38.6971C43.5084 41.2099 38.0365 43.2704 31.2681 43.2975C24.5033 43.3246 19.0169 41.3066 19.0061 38.7938L19.0024 37.4755L43.4976 37.375Z" fill="url(#paint1_linear_1120_600)"/>
<path d="M43.4976 37.3749C43.5048 39.8916 38.0293 41.9483 31.2645 41.9715C24.4997 41.9946 19.0061 39.9805 19.0024 37.4716C18.9952 34.9549 24.4708 32.8944 31.2391 32.8673C38.0003 32.848 43.4903 34.8621 43.4976 37.3749Z" fill="url(#paint2_linear_1120_600)"/>
<path d="M19.0024 47.4845C19.0024 47.1173 24.4852 46.75 31.2536 46.75C38.0184 46.75 43.5012 47.1134 43.5012 47.4845V48.2693C43.5012 48.6327 38.0184 48.9999 31.2536 48.9999C24.4889 48.9999 19.0024 48.6365 19.0024 48.2693V47.4845Z" fill="url(#paint3_linear_1120_600)"/>
<path d="M129.057 40.8038H122.379V39.0332H129.057V40.8038Z" fill="black"/>
<path d="M64.9761 46.2317C64.766 46.9624 64.2518 47.0049 64.078 47.0319C64.078 47.0319 63.0821 47.1286 61.8327 47.1286C60.6268 47.1286 59.7033 46.6918 59.0696 45.8258C58.4322 44.9598 58.1751 43.6725 58.1751 41.9677V38.8015C58.1751 35.3532 59.3557 33.6328 61.8327 33.6328C62.9082 33.6328 64.0345 33.7488 64.0345 33.7488C64.2083 33.772 64.7189 33.8532 64.9362 34.5491H65.5265V32.2179C65.5265 32.2179 64.8457 32.0633 63.9693 31.9435C63.0893 31.8275 62.5063 31.7656 61.8146 31.7656C60.0654 31.7656 58.6857 32.361 57.6862 33.5517C56.6794 34.7423 56.1797 36.4936 56.1797 38.8054V41.9715C56.1797 44.2678 56.6867 46.0152 57.6971 47.2098C58.7074 48.3966 60.0799 48.9997 61.8182 48.9997C62.8612 48.9997 63.5166 48.961 64.1685 48.8721C64.7733 48.7871 65.57 48.617 65.57 48.617V46.2356H64.9761V46.2317Z" fill="black"/>
<path d="M222.728 31.9199H219.186V32.5191C219.657 32.7202 219.885 33.041 219.606 33.8258C219.328 34.6144 216.822 41.7586 216.822 41.7586C216.822 41.7586 216.409 41.7083 216.228 41.3179C216.003 40.8346 213.432 33.9959 213.265 33.5591C213.099 33.1222 213.218 32.6583 213.718 32.5191V31.9199H210.064V32.5307C210.734 32.6351 211.006 33.1261 211.158 33.5011C211.331 33.934 214.16 41.4377 214.373 42.0137C214.591 42.5859 214.761 42.8681 214.96 43.0768C215.293 43.4248 215.666 43.5253 216.115 43.6838C216.115 43.6838 215.721 44.8513 215.373 45.7636C214.982 46.7881 214.287 47.136 213.62 47.136C213.367 47.136 212.874 46.9736 212.737 46.4401H212.117V48.6785C212.117 48.6785 212.519 49.0032 213.725 49.0032C214.768 49.0032 215.217 48.7713 215.811 48.3421C216.289 48.0019 216.76 47.3022 217.151 46.3358C217.539 45.3693 221.457 34.0887 221.667 33.5359C221.881 32.983 222.116 32.6506 222.721 32.5346V31.9199H222.728Z" fill="black"/>
<path d="M81.2108 22.8243C81.1638 22.6774 77.5858 9.21258 77.5858 9.21258C77.278 8.07215 76.561 7.5 75.4311 7.5C74.2831 7.5 73.5588 8.07601 73.2546 9.23191C73.2546 9.23191 69.9266 21.8772 69.6333 22.8243C69.4124 23.5511 69.0538 23.7985 68.5649 23.957V24.5717H72.237V23.957C72.237 23.957 71.4874 23.6709 71.6793 22.8398C72.0451 21.2702 72.6607 18.9971 72.6607 18.9971H78.1797C78.1797 18.9971 79.0706 22.4261 79.1684 22.8398C79.3603 23.6709 78.6107 23.957 78.6107 23.957V24.5717H82.2828V23.957C81.7903 23.7946 81.4354 23.5472 81.2108 22.8243ZM73.0663 17.1917C73.0663 17.1917 75.0038 9.76153 75.069 9.56824C75.1341 9.37495 75.2573 9.27443 75.4311 9.27443C75.6122 9.27443 75.7389 9.38268 75.7969 9.59917C75.8584 9.81566 77.7741 17.1879 77.7741 17.1879H73.0663V17.1917Z" fill="black"/>
<path d="M79.661 47.0938C79.6175 46.9469 76.0359 33.4782 76.0359 33.4782C75.7281 32.3378 75.0075 31.7656 73.8776 31.7656C72.7296 31.7656 72.0053 32.3416 71.7011 33.4975C71.7011 33.4975 68.3731 46.1428 68.0797 47.0899C67.8588 47.8129 67.5003 48.0641 67.0078 48.2226V48.8373H70.6799V48.2226C70.6799 48.2226 69.9303 47.9366 70.1222 47.1054C70.4916 45.532 71.1036 43.2589 71.1036 43.2589H76.6226C76.6226 43.2589 77.5135 46.6879 77.6076 47.1054C77.8032 47.9327 77.0499 48.2226 77.0499 48.2226V48.8373H80.722V48.2226C80.244 48.068 79.8855 47.8167 79.661 47.0938ZM71.5164 41.4612C71.5164 41.4612 73.4539 34.031 73.5227 33.8416C73.5843 33.6522 73.711 33.5478 73.8848 33.5478C74.0695 33.5478 74.1927 33.6599 74.2542 33.8725C74.3122 34.089 76.2315 41.4651 76.2315 41.4651H71.5164V41.4612Z" fill="black"/>
<path d="M95.805 9.26246C95.805 9.00731 95.8304 8.49702 96.4641 8.2612V7.65039H93.2121V8.2612C93.8422 8.49702 93.8712 9.00731 93.8712 9.26246C93.8712 9.62972 93.8712 14.7481 93.8712 14.7481H86.5705C86.5705 14.7481 86.5705 9.48668 86.5705 9.26246C86.5705 9.00731 86.5958 8.49702 87.2296 8.2612V7.65039H83.9775V8.2612C84.6113 8.49702 84.6366 9.00731 84.6366 9.26246C84.6366 9.47895 84.6366 22.7002 84.6366 22.9554C84.6366 23.2105 84.6113 23.717 83.9775 23.9566V24.5674H87.2296V23.9566C86.5958 23.717 86.5705 23.2105 86.5705 22.9554C86.5705 22.6964 86.5705 16.5496 86.5705 16.5496H93.8712C93.8712 16.5496 93.8712 22.5843 93.8712 22.9554C93.8712 23.2105 93.8459 23.717 93.2121 23.9566V24.5674H96.4641V23.9566C95.8304 23.717 95.805 23.2105 95.805 22.9554C95.805 22.5843 95.805 9.63745 95.805 9.26246Z" fill="black"/>
<path d="M94.2118 33.532C94.2118 33.2768 94.2335 32.7704 94.8708 32.5307V31.9199H91.6188V32.5307C92.2526 32.7704 92.2779 33.2768 92.2779 33.532C92.2779 33.8992 92.2779 39.0138 92.2779 39.0138H84.9772C84.9772 39.0138 84.9772 33.7523 84.9772 33.532C84.9772 33.2768 85.0025 32.7704 85.6363 32.5307V31.9199H82.3843V32.5307C83.018 32.7704 83.0397 33.2768 83.0397 33.532C83.0397 33.7485 83.0397 46.9698 83.0397 47.2249C83.0397 47.4801 83.018 47.9865 82.3843 48.2262V48.837H85.6327V48.23C85.0025 47.9903 84.9736 47.4839 84.9736 47.2288C84.9736 46.9698 84.9736 40.8269 84.9736 40.8269H92.2743C92.2743 40.8269 92.2743 46.8615 92.2743 47.2288C92.2743 47.4839 92.249 47.9903 91.6152 48.23V48.8408H94.8672V48.23C94.2335 47.9903 94.2081 47.4839 94.2081 47.2288C94.2118 46.8538 94.2118 33.907 94.2118 33.532Z" fill="black"/>
<path d="M110.432 22.9515L104.819 14.7172L109.353 9.26246C109.911 8.57433 110.204 8.43903 110.798 8.2612V7.65039H108.299L101.976 15.5174C101.976 15.5174 101.976 9.50214 101.976 9.26632C101.976 9.01118 101.998 8.50088 102.632 8.26506V7.65426H102.121H100.618H99.3833V8.26506C100.017 8.50088 100.039 9.01118 100.039 9.26632C100.039 9.49828 100.039 22.7118 100.039 22.9592C100.039 23.2144 100.013 23.7208 99.3833 23.9605V24.5713H102.632V23.9605C101.998 23.7208 101.976 23.2144 101.976 22.9592C101.976 22.7118 101.976 18.1501 101.976 18.1501L103.526 16.2829L109.132 24.5674H111.989V23.9566C111.359 23.8175 110.928 23.5391 110.432 22.9515Z" fill="black"/>
<path d="M108.839 47.221L103.226 38.9867L107.756 33.5281C108.314 32.84 108.607 32.7047 109.201 32.5269V31.9199H106.702L100.376 39.7831C100.376 39.7831 100.376 33.7678 100.376 33.532C100.376 33.2768 100.401 32.7665 101.031 32.5307V31.9199H100.52H99.0176H97.7827V32.5307C98.4165 32.7704 98.4382 33.2768 98.4382 33.532C98.4382 33.7639 98.4382 46.9775 98.4382 47.2249C98.4382 47.4801 98.4165 47.9904 97.7827 48.2262V48.837H101.031V48.23C100.397 47.9942 100.376 47.4839 100.376 47.2288C100.376 46.9814 100.376 42.4196 100.376 42.4196L101.922 40.5524L107.528 48.837H110.385V48.2262C109.766 48.087 109.335 47.8087 108.839 47.221Z" fill="black"/>
<path d="M61.1485 14.667C60.5038 14.667 59.7506 14.694 58.9068 14.7559V9.4442C58.9068 9.4442 64.1651 9.4442 64.4077 9.4442C64.6467 9.4442 65.1247 9.47126 65.3457 10.1478H65.9178V7.6543H63.5639H63.4118H56.3103V8.2651C56.9331 8.50865 56.9657 8.96483 56.9657 9.25477C56.9657 9.50218 56.9657 22.6655 56.9657 22.9593C56.9657 23.2144 56.9404 23.7209 56.3066 23.9605V24.5713C56.3066 24.5713 60.0874 24.5713 61.2462 24.5713C65.266 24.5713 67.37 22.9129 67.37 19.7274V19.5187C67.3773 16.2791 65.2986 14.667 61.1485 14.667ZM65.4362 19.7235C65.4362 20.7905 65.1139 21.5714 64.4693 22.0624C63.8247 22.5572 62.8433 22.8046 61.1485 22.8046C60.5799 22.8046 59.8665 22.8124 58.9068 22.7351V16.511C59.8484 16.453 60.598 16.4182 61.1485 16.4182C62.7165 16.4182 63.8247 16.6656 64.4693 17.1566C65.1139 17.6514 65.4362 18.4285 65.4362 19.4877V19.7235Z" fill="black"/>
<path d="M202.662 38.9365C202.017 38.9365 201.267 38.9674 200.424 39.0216V33.7137C200.424 33.7137 205.682 33.7137 205.928 33.7137C206.167 33.7137 206.642 33.7408 206.866 34.4173H207.435V31.9238H205.084H204.929H197.827V32.5346C198.45 32.7821 198.486 33.2382 198.486 33.5243C198.486 33.7717 198.486 46.935 198.486 47.2288C198.486 47.4801 198.461 47.9904 197.827 48.2301V48.8409C197.827 48.8409 201.608 48.8409 202.767 48.8409C206.786 48.8409 208.887 47.1824 208.887 43.9931V43.7843C208.891 40.5486 206.815 38.9365 202.662 38.9365ZM206.949 43.9931C206.949 45.0639 206.631 45.841 205.983 46.3319C205.338 46.8268 204.357 47.0742 202.662 47.0742C202.093 47.0742 201.38 47.0819 200.424 47.0046V40.7805C201.369 40.7226 202.111 40.6878 202.662 40.6878C204.23 40.6878 205.338 40.9352 205.983 41.43C206.631 41.9248 206.949 42.7019 206.949 43.7611V43.9931Z" fill="black"/>
<path d="M110.57 31.9199V34.4134H111.142C111.367 33.7369 111.841 33.7098 112.08 33.7098C112.323 33.7098 115.147 33.7098 115.147 33.7098C115.147 33.7098 115.147 46.8538 115.147 47.2249C115.147 47.4801 115.122 47.9865 114.492 48.2262V48.837H117.74V48.23C117.11 47.9904 117.085 47.4839 117.085 47.2288C117.085 46.9582 117.088 33.7137 117.088 33.7137C117.088 33.7137 119.924 33.7137 120.152 33.7137C120.387 33.7137 120.865 33.7407 121.09 34.4173H121.659V31.9238H110.57V31.9199Z" fill="black"/>
<path d="M159.382 31.9199V34.4134H159.951C160.175 33.7369 160.653 33.7098 160.892 33.7098C161.131 33.7098 163.96 33.7098 163.96 33.7098C163.96 33.7098 163.96 46.8538 163.96 47.2249C163.96 47.4801 163.934 47.9865 163.301 48.2262V48.837H166.553V48.23C165.915 47.9904 165.897 47.4839 165.897 47.2288C165.897 46.9582 165.901 33.7137 165.901 33.7137C165.901 33.7137 168.736 33.7137 168.961 33.7137C169.2 33.7137 169.678 33.7407 169.899 34.4173H170.471V31.9238H159.382V31.9199Z" fill="black"/>
<path d="M189.61 31.7656C189.027 31.7656 188.263 31.8043 187.318 31.8352C186.116 31.8739 184.906 31.9241 184.906 31.9241V32.5311C185.536 32.7707 185.565 33.281 185.565 33.5323C185.565 33.8068 185.561 46.858 185.561 47.2291C185.561 47.4843 185.536 47.9907 184.902 48.2304V48.8412H188.151V48.2304C187.521 47.9907 187.495 47.4843 187.495 47.2291C187.495 46.943 187.495 41.9831 187.495 41.9831C188.411 42.0604 189.1 42.1068 189.607 42.1068C193.586 42.1068 195.575 40.4097 195.575 37.0039V36.7062C195.578 33.4125 193.59 31.7656 189.61 31.7656ZM193.641 37C193.641 38.2139 193.326 39.0837 192.696 39.5979C192.065 40.112 191.041 40.3672 189.61 40.3672C189.494 40.3672 188.803 40.3285 187.499 40.2667V34.8042V33.6135C188.227 33.5555 188.918 33.5207 189.61 33.5207C191.026 33.5207 192.055 33.7681 192.688 34.2707C193.322 34.7694 193.641 35.5774 193.641 36.6985V37Z" fill="black"/>
<path d="M228.924 31.7656C228.341 31.7656 227.577 31.8043 226.632 31.8352C225.429 31.8739 224.22 31.9241 224.22 31.9241V32.5311C224.85 32.7707 224.879 33.281 224.879 33.5323C224.879 33.8068 224.875 46.858 224.875 47.2291C224.875 47.4843 224.85 47.9907 224.22 48.2304V48.8412H227.468V48.2304C226.838 47.9907 226.813 47.4843 226.813 47.2291C226.813 46.943 226.816 41.9831 226.816 41.9831C227.732 42.0604 228.421 42.1068 228.928 42.1068C232.907 42.1068 234.899 40.4097 234.899 37.0039V36.7062C234.892 33.4125 232.9 31.7656 228.924 31.7656ZM232.951 37C232.951 38.2139 232.64 39.0837 232.009 39.5979C231.379 40.112 230.354 40.3672 228.924 40.3672C228.808 40.3672 228.116 40.3285 226.813 40.2667V34.8042V33.6135C227.541 33.5555 228.232 33.5207 228.924 33.5207C230.34 33.5207 231.368 33.7681 232.002 34.2707C232.636 34.7694 232.955 35.5774 232.955 36.6985V37H232.951Z" fill="black"/>
<path d="M236.917 31.9199V32.5307C237.55 32.7704 237.572 33.2807 237.572 33.532C237.572 33.8065 237.572 46.9852 237.572 47.2249C237.572 47.4801 237.55 47.9865 236.917 48.2262V48.837H240.165V48.23C239.531 47.9904 239.506 47.4839 239.506 47.2288C239.506 46.9852 239.509 33.7098 239.509 33.7098C239.509 33.7098 244.134 33.7176 244.485 33.7176C244.724 33.7176 245.202 33.7446 245.423 34.4211H245.995V31.9277H236.917V31.9199Z" fill="black"/>
<defs>
<linearGradient id="paint0_linear_1120_600" x1="28.2678" y1="20.3548" x2="48.4854" y2="-5.07" gradientUnits="userSpaceOnUse">
<stop stop-color="#DB1E33"/>
<stop offset="1" stop-color="#F57E21"/>
</linearGradient>
<linearGradient id="paint1_linear_1120_600" x1="35.4014" y1="40.2916" x2="45.9671" y2="40.5496" gradientUnits="userSpaceOnUse">
<stop stop-color="#A11C34"/>
<stop offset="1" stop-color="#C22034"/>
</linearGradient>
<linearGradient id="paint2_linear_1120_600" x1="29.7132" y1="38.2443" x2="55.6741" y2="26.0937" gradientUnits="userSpaceOnUse">
<stop stop-color="#DB1E33"/>
<stop offset="0.8102" stop-color="#F08128"/>
<stop offset="1" stop-color="#F79421"/>
</linearGradient>
<linearGradient id="paint3_linear_1120_600" x1="28.6845" y1="47.9866" x2="12.903" y2="48.5759" gradientUnits="userSpaceOnUse">
<stop stop-color="#A11C34"/>
<stop offset="1" stop-color="#C22034"/>
</linearGradient>
</defs>
</svg>
