<svg width="265" height="56" viewBox="0 0 265 56" fill="none" xmlns="http://www.w3.org/2000/svg">
<path d="M45.3135 19.3184C46.1969 20.475 46.9448 21.7316 47.542 23.0629L30.6017 35.7091L23.522 31.2147V25.8078L30.6017 30.3021L45.3135 19.3184Z" fill="#21A038"/>
<path d="M16.2964 30.8327C16.2964 30.59 16.3022 30.349 16.3139 30.1094L12.0234 29.8965C12.0088 30.207 12 30.5206 12 30.837C11.9982 33.3096 12.4784 35.758 13.4132 38.0421C14.3479 40.3262 15.7188 42.4009 17.4472 44.1472L20.4905 41.0666C19.1601 39.7248 18.1047 38.1298 17.3849 36.3735C16.6651 34.6172 16.2952 32.7342 16.2964 30.8327Z" fill="url(#paint0_linear_1118_388)"/>
<path d="M30.5979 16.3499C30.8373 16.3499 31.0753 16.3588 31.3119 16.3706L31.5266 12.0241C31.219 12.0094 30.9094 12.002 30.5979 12.002C28.1552 11.999 25.7361 12.4846 23.4793 13.431C21.2226 14.3774 19.1727 15.7659 17.4473 17.5168L20.4907 20.5988C21.8158 19.2511 23.3909 18.1819 25.1255 17.4527C26.86 16.7235 28.7197 16.3487 30.5979 16.3499Z" fill="url(#paint1_linear_1118_388)"/>
<path d="M30.5977 45.3157C30.3582 45.3157 30.1201 45.3157 29.8822 45.2965L29.6675 49.6415C29.9761 49.6573 30.2862 49.6652 30.5977 49.6652C33.0393 49.6678 35.4573 49.1818 37.7128 48.2352C39.9684 47.2885 42.017 45.8998 43.741 44.1489L40.7035 41.0684C39.3781 42.4154 37.8032 43.484 36.069 44.2129C34.3347 44.9418 32.4754 45.3166 30.5977 45.3157Z" fill="url(#paint2_linear_1118_388)"/>
<path d="M38.6589 18.8769L42.2748 16.1779C38.9698 13.4678 34.8444 11.9925 30.5918 12V16.3495C33.4715 16.3459 36.2843 17.2272 38.6589 18.8769Z" fill="url(#paint3_linear_1118_388)"/>
<path d="M49.1941 30.8319C49.1964 29.7004 49.0987 28.5709 48.9019 27.457L44.8992 30.4444C44.8992 30.5731 44.8992 30.7018 44.8992 30.8319C44.9002 32.8554 44.4813 34.8567 43.6698 36.7058C42.8582 38.5549 41.6719 40.2106 40.188 41.5657L43.0752 44.7972C45.0044 43.0335 46.546 40.8789 47.6001 38.4731C48.6543 36.0673 49.1973 33.4639 49.1941 30.8319Z" fill="#21A038"/>
<path d="M30.5978 45.3159C28.5995 45.3166 26.6233 44.8922 24.7971 44.0704C22.971 43.2486 21.3357 42.0474 19.997 40.5449L16.8076 43.4672C18.549 45.4212 20.6766 46.9827 23.0522 48.0505C25.4279 49.1182 27.9986 49.6684 30.5978 49.6653V45.3159Z" fill="url(#paint4_linear_1118_388)"/>
<path d="M21.0075 20.0986L18.1219 16.8672C16.1921 18.6306 14.6499 20.7851 13.5952 23.1909C12.5406 25.5967 11.9971 28.2002 12 30.8324H16.2964C16.2955 28.809 16.7144 26.8078 17.526 24.9587C18.3376 23.1096 19.5237 21.4538 21.0075 20.0986Z" fill="url(#paint5_linear_1118_388)"/>
<path d="M119.321 22.7708L124.642 18.8457H106.833V42.4319H124.642V38.5069H111.915V32.4652H122.772V28.5402H111.915V22.7708H119.321Z" fill="#21A038"/>
<path d="M94.8507 28.0339H88.6679V22.769H98.5354L103.853 18.832H83.5894V42.4183H94.1967C100.144 42.4183 103.557 39.7196 103.557 35.0131C103.557 30.5106 100.465 28.0339 94.8507 28.0339ZM93.9679 38.492H88.6679V31.9565H93.9679C97.1845 31.9565 98.6926 33.0517 98.6926 35.2243C98.6926 37.3968 97.0879 38.492 93.9679 38.492Z" fill="#21A038"/>
<path d="M137.733 18.8418H128.039V42.428H133.12V35.7464H137.733C143.918 35.7464 147.744 32.488 147.744 27.2815C147.744 22.0752 143.918 18.8418 137.733 18.8418ZM137.626 31.8184H133.12V22.7699H137.626C140.879 22.7699 142.674 24.3776 142.674 27.2959C142.674 30.2142 140.879 31.8184 137.626 31.8184Z" fill="#21A038"/>
<path d="M75.9644 36.8615C74.6519 37.5732 73.1813 37.9416 71.6889 37.9329C67.2218 37.9329 63.9812 34.7398 63.9812 30.343C63.9812 25.9461 67.2218 22.7461 71.6889 22.7461C73.2998 22.7187 74.8773 23.2078 76.1909 24.142L79.7451 21.5213L79.5047 21.3503C77.4314 19.5252 74.6612 18.5586 71.4903 18.5586C68.051 18.5586 64.9325 19.7171 62.7058 21.8249C61.58 22.9101 60.6896 24.216 60.09 25.6612C59.4906 27.1063 59.1948 28.6596 59.2214 30.2243C59.1975 31.8049 59.492 33.374 60.087 34.8382C60.6821 36.3023 61.5657 37.6313 62.685 38.746C64.922 40.9374 68.0336 42.1448 71.4485 42.1448C75.0166 42.1448 78.1353 40.899 80.2469 38.6308L77.0655 36.2579L75.9644 36.8615Z" fill="#21A038"/>
<path d="M167.891 28.0339H161.71V22.769H174.992V18.832H156.628V42.4183H167.222C173.169 42.4183 176.582 39.7196 176.582 35.0131C176.596 30.5106 173.505 28.0339 167.891 28.0339ZM167.008 38.492H161.71V31.9565H167.008C170.224 31.9565 171.732 33.0517 171.732 35.2243C171.732 37.3968 170.141 38.492 167.008 38.492Z" fill="#21A038"/>
<path d="M234.348 42.3831H229.197V18.7969H234.348V28.7032H237.152L244.723 18.7969H250.561L241.581 30.0171L252.009 42.3831H245.174L237.509 33.1069H234.348V42.3831Z" fill="#21A038"/>
<path d="M195.296 37.9025H184.399L182.552 42.4827H177.07L187.291 18.8965H192.771L202.826 42.4827H197.144L195.296 37.9025ZM193.59 33.6289L189.88 24.4685L186.15 33.6289H193.59Z" fill="#21A038"/>
<path d="M209.761 18.8965V28.7457H220.421V18.8965H225.732V42.4827H220.421V33.1889H209.761V42.4827H204.45V18.8965H209.761Z" fill="#21A038"/>
<defs>
<linearGradient id="paint0_linear_1118_388" x1="18.3161" y1="43.6045" x2="13.5156" y2="29.9014" gradientUnits="userSpaceOnUse">
<stop offset="0.14" stop-color="#F1E813"/>
<stop offset="0.3" stop-color="#E6E418"/>
<stop offset="0.58" stop-color="#C9DA26"/>
<stop offset="0.89" stop-color="#A2CC39"/>
</linearGradient>
<linearGradient id="paint1_linear_1118_388" x1="18.674" y1="18.2858" x2="30.8026" y2="13.7217" gradientUnits="userSpaceOnUse">
<stop offset="0.06" stop-color="#0FA7DF"/>
<stop offset="0.54" stop-color="#0098F8"/>
<stop offset="0.92" stop-color="#0290EA"/>
</linearGradient>
<linearGradient id="paint2_linear_1118_388" x1="29.3842" y1="47.0401" x2="43.0726" y2="43.9865" gradientUnits="userSpaceOnUse">
<stop offset="0.12" stop-color="#A2CC39"/>
<stop offset="0.28" stop-color="#86C239"/>
<stop offset="0.87" stop-color="#219F38"/>
</linearGradient>
<linearGradient id="paint3_linear_1118_388" x1="29.6981" y1="13.4567" x2="41.4122" y2="17.0264" gradientUnits="userSpaceOnUse">
<stop offset="0.06" stop-color="#0290EA"/>
<stop offset="0.79" stop-color="#0C89CA"/>
</linearGradient>
<linearGradient id="paint4_linear_1118_388" x1="17.8854" y1="42.9378" x2="30.6471" y2="47.6475" gradientUnits="userSpaceOnUse">
<stop offset="0.13" stop-color="#F1E813"/>
<stop offset="0.3" stop-color="#EAE616"/>
<stop offset="0.53" stop-color="#D8DF1F"/>
<stop offset="0.8" stop-color="#BAD52D"/>
<stop offset="0.98" stop-color="#A2CC39"/>
</linearGradient>
<linearGradient id="paint5_linear_1118_388" x1="13.6006" y1="31.3589" x2="18.8208" y2="17.9495" gradientUnits="userSpaceOnUse">
<stop offset="0.07" stop-color="#A2CC39"/>
<stop offset="0.26" stop-color="#81C45E"/>
<stop offset="0.92" stop-color="#0FA7DF"/>
</linearGradient>
</defs>
</svg>
