<svg width="46" height="33" viewBox="0 0 46 33" fill="none" xmlns="http://www.w3.org/2000/svg">
<path fill-rule="evenodd" clip-rule="evenodd" d="M27.3911 28.5612L27.9839 26.3573L46.0005 25.9699L45.3152 28.4953L27.3911 28.5612ZM36.0644 13.4553L27.7606 16.3254L25.0658 13.4049L0.000488281 13.2965L0.716531 11.3327H13.459C13.6478 11.0622 13.8748 10.8208 14.1327 10.6161C16.404 8.84216 18.429 7.4439 20.0997 6.3555C22.6829 4.66286 23.7223 4.58927 26.598 6.02627L29.1273 11.3017H36.5803L36.076 13.4669L36.0644 13.4553ZM27.9185 2.99734C28.2072 -1.37175 35.2329 -0.875971 34.3205 3.90757C33.3889 8.75695 27.6413 7.19601 27.9185 2.98959V2.99734ZM4.65477 30.7341L19.9265 30.5869L20.0227 28.596L5.39391 28.6619L6.04066 26.8414L20.119 26.5277L20.35 21.5389C20.35 21.5389 16.3732 19.2149 14.0942 17.9948C13.2242 17.5223 12.7083 16.4455 12.5543 15.206L22.1208 15.4965L26.0745 19.7029L23.8224 30.5482L44.7994 30.339L44.0756 33L3.98107 32.6359L4.65477 30.7341Z" fill="#3F4C1C"/>
</svg>
