<svg width="265" height="56" viewBox="0 0 265 56" fill="none" xmlns="http://www.w3.org/2000/svg">
<path d="M96.4569 38.8002C94.7371 39.4002 92.9353 39.6574 91.3793 39.6574C86.4655 39.6574 81.2241 36.8288 81.2241 29.4574C81.2241 22.5145 85.9741 19.0859 92.1164 19.0859C93.6724 19.0859 94.9827 19.2574 96.4569 19.7717L96.2931 23.2002C95.1465 22.7717 93.9181 22.4288 92.4439 22.4288C88.0215 22.4288 85.4827 25.2574 85.4827 29.3717C85.4827 34.2574 88.6767 36.2288 92.1983 36.2288C93.9181 36.2288 95.3103 35.8002 96.2931 35.3716L96.4569 38.8002Z" fill="#00528E"/>
<path d="M142.319 19.2578V39.4007H138.306V22.6007H130.526V39.4007H126.595V19.2578H142.319Z" fill="#00528E"/>
<path d="M115.375 19.2578L110.543 33.7435L105.711 19.2578H98.9956V39.4007H102.927V22.1721H103.009L108.659 39.4007H112.427L118.078 22.1721H118.159V39.4007H122.09V19.2578H115.375Z" fill="#00528E"/>
<path d="M165.987 19.2578V22.8578H157.388V27.0578H160.582C166.315 27.0578 167.543 31.0007 167.543 33.5721C167.543 35.715 166.151 39.4007 160.582 39.4007H153.457V19.2578H165.987ZM157.388 36.2292H159.845C162.056 36.2292 163.367 35.2864 163.367 33.1435C163.367 31.0864 162.056 30.0578 159.845 30.0578H157.388V36.2292Z" fill="#00528E"/>
<path d="M180.319 19.2578L188.099 39.4007H183.595L181.957 34.8578H173.849L172.211 39.4007H167.953L175.733 19.2578H180.319ZM180.81 31.515L177.944 23.2864H177.862L175.16 31.515H180.81Z" fill="#00528E"/>
<path d="M193.914 19.2578V27.4007H201.858V19.2578H205.789V39.4007H201.858V30.7435H193.914V39.4007H189.983V19.2578H193.914Z" fill="#00528E"/>
<path d="M214.634 19.2578V27.915H214.716L221.841 19.2578H226.591L218.483 28.4292L227.082 39.4864H222.004L214.634 29.3721H214.552V39.4007H210.703V19.2578H214.634Z" fill="#00528E"/>
<path d="M79.5862 5.02907C79.3405 4.68621 76.1465 6.4005 76.1465 6.4005C76.2284 6.4005 76.3103 6.31478 76.3103 6.31478C76.9655 5.88621 77.9482 5.28621 77.5388 4.85764C77.375 4.6005 76.8836 4.77192 75.6551 5.45764C75.0819 5.8005 72.0517 7.17192 69.0215 8.54335C66.4008 9.74335 61.8146 11.8005 61.4051 12.3148C61.4051 12.3148 61.4051 12.3148 61.3232 12.4005C61.2413 12.4862 61.2413 12.5719 61.1594 12.6576C60.9957 13.0005 60.8319 13.6005 60.6681 14.3719V14.4576C60.6681 14.5434 60.6681 14.5434 60.6681 14.5434C60.5043 15.4862 60.2586 16.6862 60.0948 18.0576C59.5215 22.0862 58.9482 28.0005 58.9482 28.0005C58.9482 28.0005 58.7844 32.0291 58.4569 34.0005C58.375 34.3434 58.2931 34.6005 58.2931 34.8576C58.2931 34.9434 58.2112 35.0291 58.2112 35.2005C58.0474 35.5434 57.8836 35.8862 57.6379 36.1434C56.9008 37.0005 55.181 36.7434 54.6896 36.6576C53.5431 36.5719 52.3965 35.6291 52.3146 35.4576C52.1508 35.2005 51.4138 34.0862 50.3491 34.0005C50.0215 34.0005 48.7931 34.1719 48.4655 34.1719C48.056 34.1719 47.4827 33.5719 46.8276 33.4862C46.1724 33.4005 45.1896 34.0862 45.1896 34.0862C45.1896 34.0862 47.7284 35.1148 48.056 35.5434C48.3836 35.9719 49.1207 37.1719 50.0215 37.6005C50.9224 38.0291 54.1982 41.8862 54.1982 41.8862C54.1982 41.8862 54.8534 42.5719 55.9181 43.5148C55.0172 43.8576 53.9526 44.1148 52.8879 44.2005C45.681 45.0576 39.4569 40.0862 38.7198 32.6291C38.556 31.0005 38.6379 29.3719 39.0474 27.8291C39.4569 26.0291 40.1939 24.2291 41.4224 22.6005C43.5517 19.7719 46.5819 17.8862 50.1034 17.5434C52.2327 17.2862 54.4439 17.6291 56.4094 18.4005C56.4094 18.1434 56.4094 17.9719 56.3276 17.7148C54.362 16.8576 52.2327 16.6005 49.9396 16.8576C46.3362 17.2862 43.1422 19.0862 40.8491 22.0005C39.2112 24.0576 38.2284 26.4576 37.9827 29.0291C37.9008 29.3719 37.9008 29.6291 37.8189 30.1434C37.737 31.0005 37.737 32.7148 37.9008 33.5719C38.7198 41.0291 45.2715 46.5148 52.6422 45.6576C54.1982 45.4862 55.6724 45.0576 57.0646 44.3719C58.1293 45.2291 59.4396 46.0005 60.75 46.6862C64.1896 48.3148 68.3663 48.4005 69.3491 48.4862C71.3146 48.7434 73.0344 51.3148 73.6077 51.8291C74.181 52.3433 77.8663 51.4862 77.8663 51.4862C77.8663 51.4862 77.6207 50.7148 77.4569 49.6862C77.2931 48.6576 76.2284 48.2291 76.0646 47.9719C75.9008 47.7148 71.1508 45.4862 70.3319 44.9719C69.5948 44.4576 68.612 43.4291 67.6293 41.7148C66.6465 40.0005 67.056 38.6291 67.2198 38.3719C67.3836 38.0291 67.7931 38.0291 68.0388 37.5148C68.2844 37.0862 68.1207 37.0862 68.0388 36.8291C68.0388 36.5719 68.1207 36.4862 68.2844 36.0576C68.4482 35.7148 68.4482 35.7148 68.4482 35.7148C68.4482 35.7148 68.4482 35.7148 68.5301 35.2862C68.612 34.8576 68.5301 35.2862 68.612 35.1148C68.6939 34.9434 68.6939 34.9434 68.6939 34.9434C68.6939 34.9434 68.6939 34.6862 68.7758 34.6005C68.8577 34.5148 68.612 34.2576 68.6939 34.0862C68.7758 33.9148 68.7758 33.9148 68.8577 33.4862C68.9396 33.1434 68.8577 33.3148 68.9396 32.8862C68.9396 32.5434 69.1034 32.7148 69.2672 32.4576C69.431 32.2005 69.1034 31.9433 69.1034 31.9433C69.1034 31.9433 69.1034 31.7719 69.5129 31.0862C69.8405 30.3148 69.5129 31.0862 69.5948 30.7434C69.7586 30.4005 69.431 30.1434 69.431 29.8862C68.8577 29.6291 69.0215 29.7148 69.0215 29.3719C69.1034 29.0291 69.0215 29.3719 69.1853 29.0291C69.3491 28.6862 69.2672 28.5148 69.2672 28.5148L69.0215 27.7434C69.0215 27.7434 69.0215 27.7434 69.1853 27.5719C69.3491 27.4005 69.1853 26.9719 69.1853 26.9719L68.8577 26.1148C68.8577 26.1148 68.8577 25.7719 68.9396 25.5148C69.0215 25.3434 68.6939 24.4005 68.6939 24.4005L68.8577 23.5434L68.612 22.2576L68.4482 21.1434C68.4482 21.1434 68.3663 19.5148 68.3663 18.8291C68.3663 18.2291 68.3663 17.4576 68.5301 16.6005C68.6939 15.7434 70.987 14.7148 71.3146 14.2005C71.5603 13.6862 69.9224 14.2862 69.9224 14.2862C69.9224 14.2862 72.9526 13.4291 73.1163 13.0005C73.2801 12.6576 71.1508 13.0862 71.1508 13.0862C70.987 13.1719 71.1508 13.0862 71.1508 13.0862C71.9698 12.9148 74.0991 12.3148 74.8362 11.7148C75.6551 10.9434 73.362 11.5434 73.0345 11.6291C73.4439 11.5434 75.9008 10.7719 76.2284 10.0005C76.3922 9.57192 74.3448 9.91478 74.3448 9.91478C75.4094 9.65764 76.6379 9.31478 77.375 8.8005C78.8491 8.02907 79.0129 7.42907 78.6853 7.25764C78.3577 7.08621 75.9008 7.94335 75.9008 7.94335C75.8189 7.94335 75.8189 7.94335 75.737 8.02907C75.8189 8.02907 75.9008 7.94335 75.9008 7.94335C76.6379 7.68621 77.375 7.34335 77.8663 7.0005C78.7672 6.4005 79.9138 5.54335 79.5862 5.02907ZM75.6551 6.65764C75.8189 6.57192 75.9008 6.57192 75.9827 6.48621C75.8189 6.48621 75.737 6.57192 75.6551 6.65764Z" fill="#00528E"/>
<path d="M73.1164 4.08568C72.8707 3.82854 71.3147 4.59997 71.3147 4.59997C71.3147 4.59997 62.0603 9.22854 57.9655 11.4571C57.0647 11.9714 56 12.7428 56 14.2C56 19 56.9009 26.0285 57.3922 29.7143C57.8017 33.4 58.2112 34.9428 58.1293 35.0285C58.1293 34.9428 58.2931 34.6 58.4569 33.9143C58.8664 32.0285 58.9483 27.9143 58.9483 27.9143C58.9483 27.9143 59.5216 21.9143 60.0948 17.9714C60.5043 15.3143 60.75 13.1714 61.3233 12.3143C61.6509 11.7143 69.1853 8.45711 70.4957 7.7714C72.1336 6.99997 72.2974 6.82854 72.2974 6.22854C72.3793 5.62854 70.6595 6.31425 70.6595 6.31425C70.6595 6.31425 72.1336 5.45711 72.7069 5.11425C73.0345 4.7714 73.3621 4.34282 73.1164 4.08568ZM42.0776 21.4L44.4526 17.8857L41.5043 20.9714L40.1121 15.9143L40.3578 21.0571L37.9009 19.4285L40.1121 21.8285L37 22.6857L40.194 22.5143L37.5733 26.2857L40.6853 23.1143L41.9957 27.8285L41.75 23.1143L44.2069 24.5714L41.9138 22.1714L45.0259 21.2285L42.0776 21.4Z" fill="#00A1E9"/>
</svg>
