<svg width="265" height="56" viewBox="0 0 265 56" fill="none" xmlns="http://www.w3.org/2000/svg">
<path d="M40.8949 19.2734V25.9708H38.2305C34.8647 25.9708 32.1528 28.6134 32.1528 31.8941C32.1528 35.1735 34.8647 37.8161 38.2293 37.8161H40.8949V44.5135C46.9713 43.3746 51.5074 38.1809 51.5074 31.8928C51.5074 25.6518 46.9726 20.4581 40.8949 19.2734Z" fill="#003791"/>
<path d="M38.2306 39.9107C33.6958 39.9107 30.0012 36.3123 30.0012 31.8939C30.0012 27.4756 33.6946 23.8759 38.2281 23.8759H38.7432V19H38.2294C30.9377 19 25 24.786 25 31.8927C25 39.0464 30.9377 44.8324 38.2306 44.8324H38.7445V39.9132H38.2306V39.9107Z" fill="#FF4B5F"/>
<path d="M70.2072 36.4025C69.136 37.2596 67.7992 37.7259 66.4213 37.7231C63.1018 37.7231 60.4374 35.1263 60.4374 31.8914C60.4374 28.6577 63.1005 26.0609 66.4213 26.0609C67.8661 26.0547 69.263 26.573 70.3472 27.5176L72.4515 25.4685C70.7969 23.9953 68.6476 23.183 66.4213 23.1895C61.4651 23.1895 57.4917 27.1082 57.4917 31.8914C57.4917 36.6757 61.4651 40.639 66.4213 40.639C68.7119 40.639 70.7686 39.8192 72.3115 38.4527L70.2072 36.4025ZM165.345 23.8733L158.753 31.6181L152.114 23.8733L152.068 23.9648V23.8733H149.402V39.9107H152.068V28.1556L158.753 35.9004L165.345 28.3387V39.9107H167.963V23.8733H165.345ZM92.2737 31.8914C92.2737 36.7215 88.2527 40.5933 83.3441 40.5933C78.3891 40.5933 74.4157 36.6757 74.4157 31.8914C74.4157 27.1082 78.4354 23.1895 83.3441 23.1895C88.2527 23.1895 92.2737 27.1082 92.2737 31.8914ZM89.2817 31.8914C89.2817 28.6577 86.6173 26.0609 83.2978 26.0609C79.9783 26.0609 77.3139 28.6577 77.3139 31.8914C77.3139 35.1263 79.9783 37.7231 83.2978 37.7231C86.6173 37.7231 89.2817 35.1263 89.2817 31.8914ZM146.692 31.8914C146.692 36.7215 142.671 40.5933 137.762 40.5933C132.806 40.5933 128.832 36.6757 128.832 31.8914C128.832 27.1082 132.853 23.1895 137.762 23.1895C142.717 23.1895 146.692 27.1082 146.692 31.8914ZM143.746 31.8914C143.746 28.6577 141.081 26.0609 137.762 26.0609C134.442 26.0609 131.778 28.6577 131.778 31.8914C131.778 35.1263 134.442 37.7231 137.762 37.7231C141.034 37.7231 143.746 35.1263 143.746 31.8914ZM128.786 23.8733H125.185L118.407 30.6165H115.649V23.8733H113.031V39.9107H115.649V33.2133H118.36L125.139 39.9107H128.692L120.652 31.9371L128.786 23.8733Z" fill="#003791"/>
<path d="M239.676 23.873H236.125L229.299 30.6162H226.541V23.873H223.922V39.9104H226.541V33.213H229.299L236.03 39.9104H239.584L231.589 31.9369L239.676 23.873ZM200.967 39.9092H203.868L196.62 23.873H193.628L186.382 39.9104H189.281L190.87 36.4479H199.379L200.967 39.9104V39.9092ZM192.04 33.8956L195.124 27.1537L198.21 33.8956H192.039H192.04Z" fill="#003791"/>
<path d="M109.665 35.2633C109.665 34.6294 109.532 34.0023 109.275 33.4219C109.017 32.8414 108.64 32.3202 108.169 31.8911C109.056 31.0255 109.665 29.8408 109.665 28.5202C109.661 27.2848 109.162 26.1015 108.276 25.2302C107.391 24.3589 106.192 23.8708 104.943 23.8731H95.313V39.9549H104.943C107.561 39.9104 109.665 37.8144 109.665 35.2633ZM97.9774 26.4711H104.897C106.066 26.4711 107 27.3813 107 28.5202C107 29.6591 106.066 30.5704 104.897 30.5704H97.9774V26.4699V26.4711ZM104.897 37.3581H97.9774V33.213H104.943C106.112 33.213 107.047 34.1689 107.047 35.2633C107 36.401 106.066 37.3581 104.897 37.3581Z" fill="#003791"/>
<path d="M217.985 23.9188V30.6162H208.401V23.9188H205.737V39.8646H208.401V33.2118H217.985V39.8646H220.65V23.9188H217.985ZM185.447 35.2633C185.447 32.711 183.296 30.6162 180.678 30.6162H173.759V26.4699H183.858V23.873H171.095V39.9549H180.678C183.296 39.9104 185.447 37.8144 185.447 35.2633ZM180.678 37.3581H173.759V33.213H180.678C181.847 33.213 182.782 34.1689 182.782 35.2633C182.782 36.4009 181.847 37.3581 180.678 37.3581Z" fill="#003791"/>
</svg>
