<svg width="264" height="56" viewBox="0 0 264 56" fill="none" xmlns="http://www.w3.org/2000/svg">
<path fill-rule="evenodd" clip-rule="evenodd" d="M24.4313 48.2113C26.8617 44.0657 28.2005 36.1787 28.7154 22.3665H30.4868C31.0017 36.199 32.3405 44.0859 34.7503 48.2113C33.1438 48.7168 31.393 49 29.6011 49C27.8092 49 26.079 48.737 24.4313 48.2113ZM211.278 34.9047C211.278 35.7743 211.01 36.5226 210.433 37.1898C209.651 38.0595 208.456 38.5044 206.87 38.5044H202.298V26.2089H210.269V28.3726H204.81V30.9613H206.85C208.497 30.9613 209.671 31.4061 210.433 32.3363C211.01 33.0037 211.278 33.8531 211.278 34.9047ZM208.641 34.7226C208.641 34.0958 208.436 33.6508 208.065 33.3476C207.673 33.024 207.117 32.8621 206.417 32.8621H204.831V36.5428H206.417C207.117 36.5428 207.673 36.4011 208.065 36.0979C208.415 35.7945 208.641 35.3294 208.641 34.7226ZM225.429 38.5044H222.607L221.535 35.7541H216.386L215.314 38.5044H212.597L217.58 26.2089H220.443L225.429 38.5044ZM220.774 33.7116L218.94 28.676L217.168 33.7116H220.774ZM237.066 38.5044H234.532V33.1654H229.485V38.5044H226.952V26.2089H229.485V31.1634H234.532V26.2089H237.066V38.5044ZM250 38.5044H246.766L242.131 32.3768L242.07 38.5044H239.536V26.2089H242.07V31.4668L246.644 26.2089H249.651L244.439 31.75L250 38.5044ZM188.481 45.0363H189.573V20.3847H188.481V45.0363ZM79.4456 40.5065H74.0491V24.1664H85.1715C90.8563 24.1664 90.8563 28.7569 90.8563 29.7681C90.8563 30.8398 90.8563 35.7945 85.1715 35.7945H79.4456V40.5065ZM79.425 28.2109V31.7297H83.2972C83.9769 31.7297 85.4804 31.7297 85.4804 29.9096C85.4804 28.2311 83.9563 28.2311 83.3589 28.2311H79.425V28.2109ZM88.1787 40.5065H93.8429L95.161 37.1494H101.196L102.473 40.5065H111.515L115.799 28.7165L120.083 40.5065H125.768L118.703 24.1664H112.792L106.963 37.7763L101.217 24.1664H95.161L88.1787 40.5065ZM98.1681 28.7771L99.8982 33.388H96.4586L98.1269 28.7367L98.1681 28.7771ZM170.237 30.3747C175.921 30.3747 175.921 33.5497 175.921 35.3294C175.921 37.1898 175.921 40.5267 170.298 40.5267H159.341V24.1866H175.118V28.2716H164.737V30.3949H170.237V30.3747ZM169.351 36.7045C170.546 36.7045 170.546 35.7743 170.546 35.39C170.546 35.026 170.546 34.1969 169.33 34.1969H164.737V36.7247H169.351V36.7045ZM64.6777 40.5065H58.8281L61.4851 35.8956L54.8117 24.1664H60.8467L64.3069 31.123L67.7877 24.1664H73.6373L64.6777 40.5065ZM138.991 40.5065H131.618C127.56 40.5065 124.409 37.2302 124.409 32.5589C124.409 27.301 127.581 24.1664 131.679 24.1664H138.991V28.2514H134.274C131.35 28.2514 129.805 29.1007 129.805 32.478C129.805 35.8349 131.391 36.4619 134.274 36.4619H138.991V40.5065ZM158.249 40.5065H152.853V28.9794L146.55 40.5065H140.103V24.1664H145.52V35.4103L151.679 24.1664H158.249V40.5065ZM29.6217 21.3554C37.8399 21.3554 44.8429 26.9369 44.8429 34.1363C44.8429 36.4213 44.0807 38.747 42.6183 40.8907C38.7256 37.291 35.2858 30.6983 33.9677 22.8922C33.8234 22.8315 32.6494 22.5688 31.7432 22.5082C31.7432 23.6405 32.7112 40.4052 38.746 46.3507C43.2156 43.4185 46.2022 38.3627 46.2022 32.6801C46.2022 24.874 40.6615 18.3421 33.2261 16.7243C32.8348 11.4664 32.8348 9.34297 32.7936 6.73421H31.4754C31.4754 6.75445 31.5372 14.0549 31.5578 16.4614C31.1047 16.4007 30.6515 16.3805 30.1572 16.3401C30.1572 12.1337 30.1572 4.46925 30.1366 0H29.045C29.0244 4.46925 29.0244 12.1539 29.0244 16.3401C28.5301 16.3603 28.0769 16.4007 27.6238 16.4614C27.6444 14.0549 27.7062 6.77466 27.7062 6.73421H26.3674C26.3674 9.34297 26.3674 11.4664 25.976 16.7243C18.5406 18.3421 13 24.874 13 32.6801C13 38.3829 15.9453 43.4185 20.4561 46.3507C26.491 40.4052 27.459 23.6405 27.459 22.5082C26.5527 22.5688 25.3787 22.8315 25.2345 22.8922C23.8958 30.6983 20.4767 37.291 16.5839 40.8907C15.1009 38.7672 14.3594 36.4213 14.3594 34.1363C14.4006 26.9167 21.3623 21.3554 29.6217 21.3554Z" fill="#0E3263"/>
</svg>
