<svg width="265" height="56" viewBox="0 0 265 56" fill="none" xmlns="http://www.w3.org/2000/svg">
<path d="M81.2872 22.0547C79.2155 22.0547 77.4444 23.7575 77.4444 25.7804V28.9884H72.1311V22.0547H71.9509C69.8792 22.0547 68.1069 23.7575 68.1069 25.7804V38.4821H68.2871C70.36 38.4821 72.1311 36.7804 72.1311 34.7564V31.6581H77.4444V38.4821H81.4662V22.0547H81.2872Z" fill="black"/>
<path d="M241.151 22.0547C239.08 22.0547 237.309 23.7575 237.309 25.7804V28.9884H231.994V22.0547H231.814C229.742 22.0547 227.971 23.7575 227.971 25.7804V38.4821H228.153C230.222 38.4821 231.994 36.7804 231.994 34.7564V31.6581H237.309V38.4821H241.329V22.0547H241.151Z" fill="black"/>
<path d="M58.5099 35.5778C56.0486 35.5778 54.4225 31.6475 54.4225 27.0407C54.4225 22.4361 56.1375 19.211 58.5099 19.211C60.8799 19.211 62.6837 22.4361 62.6837 27.0407C62.6837 32.2555 61.1337 35.5778 58.5099 35.5778ZM58.5099 16.043C53.8423 16.043 50.8207 19.9744 50.4007 25.6933H45.6501V16.3664H45.6197C43.3093 16.3664 41.5078 18.155 41.5078 20.355V38.4818H41.5394C43.8065 38.4635 45.6501 36.6521 45.6501 34.4041V28.6258H50.4007C50.7587 33.9927 53.792 38.8315 58.5099 38.8315C63.9214 38.8315 66.7968 33.7184 66.7968 27.0704C66.7968 20.8533 63.7354 16.043 58.5099 16.043Z" fill="black"/>
<path d="M95.7919 22.0547C94.4736 22.0547 93.292 22.4673 92.348 23.9324L87.1014 32.8501V22.0547H83.0796V38.4821H84.7828C86.0813 38.4821 87.264 38.0718 88.2268 36.6044L93.7682 27.3827V34.7564C93.7682 36.7804 95.5381 38.4821 97.6086 38.4821H97.7911V22.0547H95.7919Z" fill="black"/>
<path d="M176.677 22.0547C175.36 22.0547 174.174 22.4673 173.235 23.9324L167.987 32.8501V22.0547H163.964V38.4821H165.669C166.967 38.4821 168.149 38.0718 169.111 36.6044L174.652 27.3827V34.7564C174.652 36.7804 176.424 38.4821 178.495 38.4821H178.673V22.0547H176.677Z" fill="black"/>
<path d="M112.076 30.4715C111.144 28.4178 109.752 26.9515 107.739 26.1892L114.984 16.3652H110.469L103.47 26.1001V16.4087H103.382C101.069 16.4087 99.3281 18.0498 99.3281 20.2795V38.4807H99.4182C101.73 38.4807 103.47 36.8384 103.47 34.6098V27.8589C105.542 27.8589 107.105 29.2098 107.854 30.9675L110.83 38.4807H115.387L112.076 30.4715Z" fill="black"/>
<path d="M191.639 22.0547H179.542V25.1953H183.611V38.4821H183.791C185.891 38.4821 187.57 36.8078 187.57 34.785V25.1953H191.639V22.0547Z" fill="black"/>
<path d="M149.97 35.4901C151.833 33.561 152.722 30.0913 153.143 27.425L153.413 25.049H156.535L157.496 35.4901H149.97ZM161.218 35.3735L159.837 22.0547H150.201L149.601 26.0444C149.06 29.5941 148.209 34.0558 144.953 35.9587L145.222 42.7633H145.437C147.024 42.7633 148.312 41.5061 148.312 39.953L148.365 38.4821H159.332L159.482 42.7633H159.695C161.285 42.7633 162.572 41.5061 162.572 39.953L162.713 35.9587L161.218 35.3735Z" fill="black"/>
<path d="M254.396 33.2315C253.504 31.5081 252.446 30.1915 250.854 29.5469L256.81 22.0566H252.477L246.711 29.4589V22.0566H242.686V38.4818H242.866C244.939 38.4818 246.711 36.7812 246.711 34.7572V31.0166C248.39 31.0166 249.593 32.2349 250.254 33.6715L252.672 38.4818H257L254.396 33.2315Z" fill="black"/>
<path d="M204.898 35.7775L202.465 35.7729V27.9249C202.976 27.8072 203.877 27.6392 204.657 27.6392C207.567 27.6392 209.271 29.3329 209.271 31.4289C209.271 33.6849 207.631 35.7775 204.898 35.7775ZM205.078 24.6449C204.088 24.6449 203.036 24.8095 202.465 24.9558V19.7969H207.796C209.702 19.7969 211.248 18.2883 211.248 16.4255V16.3672H198.443V38.4815H204.959C209.836 38.4815 213.474 35.9112 213.474 31.5146C213.474 27.7478 210.452 24.6449 205.078 24.6449Z" fill="black"/>
<path d="M134.352 29.1244C134.352 26.2204 135.403 24.6661 137.653 24.609H137.806C138.916 24.609 140.987 24.9598 141.108 28.2158L134.352 29.1244ZM144.59 29.8284C144.59 24.9015 142.157 22.0547 137.775 22.0547C133.331 22.0547 130.63 25.3118 130.63 30.329C130.63 35.489 133.542 38.7164 138.436 38.7164C141.136 38.7164 143.029 38.0707 144.049 37.5427V34.2878C143.029 34.9918 141.618 35.8707 138.826 35.8707C136.305 35.8707 134.922 34.4638 134.593 31.7941L144.59 30.4455V29.8284Z" fill="black"/>
<path d="M223.201 36.4867C222.811 36.5758 221.82 36.633 220.981 36.633C218.819 36.633 217.558 35.7244 217.558 33.7004C217.558 30.9724 219.689 30.2684 223.201 29.9461V36.4867ZM213.984 33.8181C213.984 36.8993 216.297 38.7164 220.738 38.7164H221.581C223.14 38.7164 225.724 38.481 226.835 38.2753V27.8341C226.835 23.7278 224.013 22.0547 220.619 22.0547C218.037 22.0547 216.058 22.7907 215.007 23.2878V25.8993C216.779 24.9895 218.368 24.4021 219.959 24.4021C221.881 24.4021 223.201 24.9598 223.201 27.0421V28.1278C218.189 28.5975 213.984 29.5941 213.984 33.8181Z" fill="black"/>
<path d="M121.579 36.1949C121.008 36.1949 120.557 36.1355 120.167 35.9904V24.8144C120.677 24.6384 121.187 24.5504 121.848 24.5504C124.462 24.5504 125.602 26.3984 125.602 30.3286C125.602 32.9675 124.912 36.1949 121.579 36.1949ZM121.938 22.0566C119.66 22.0566 117.766 22.4372 116.295 23.2006L116.205 23.2601V44.9938H116.416C118.486 44.9938 120.167 43.3229 120.167 41.2978V38.4544C120.738 38.5995 121.52 38.7172 122.39 38.7172C126.742 38.7172 129.595 35.3149 129.595 30.2109C129.595 25.1366 126.712 22.0566 121.938 22.0566Z" fill="black"/>
<path fill-rule="evenodd" clip-rule="evenodd" d="M23.5735 20.064C23.5817 20.0526 23.5899 20.04 23.5992 20.0274C23.8157 19.72 23.7256 19.4914 23.5805 19.3691C23.4893 19.2903 21.3181 18.0057 21.3181 18.0057C21.1614 17.9029 21.0572 17.728 21.0572 17.528C21.0572 17.2137 21.2503 16.976 21.6878 16.8583C23.0834 16.4834 27.9907 16.2869 29.6589 16.2869C30.2368 16.2869 31.2334 16.2846 32.1283 16.3097L32.0886 16.272C29.6437 14.232 26.4688 13 23.0015 13C15.2678 13 9 19.1223 9 26.6777C9 29.9989 10.2108 33.0423 12.2252 35.4126C13.9846 32.9406 18.3269 26.8503 19.278 25.6057C20.3741 24.1714 22.8751 20.9829 23.2974 20.4423L23.3185 20.4171L23.5735 20.064Z" fill="#E2001A"/>
<path fill-rule="evenodd" clip-rule="evenodd" d="M14.4642 37.5209C16.8272 39.2991 19.7869 40.3563 23.0015 40.3563C30.734 40.3563 37.0018 34.2329 37.0018 26.6786C37.0018 24.3917 36.4274 22.2374 35.4132 20.3437L35.4144 20.3449C35.8963 19.8911 36.452 19.1734 36.087 18.2729C35.9724 18.0054 35.4284 17.3974 35.288 17.25L35.3079 17.3026C35.6483 18.3071 34.9745 18.9369 34.4902 19.3643C34.2247 19.6009 30.6696 22.8751 26.5004 26.4363C22.8249 29.5757 18.7153 32.77 16.3336 34.5117C12.9844 36.9597 12.3328 37.3163 12.3328 37.3163C12.2439 37.3631 12.0965 37.4031 11.9889 37.4031C11.7842 37.4031 11.6064 37.314 11.4941 37.17L11.4906 37.1666C11.473 37.2089 11.4672 37.2454 11.4824 37.2706C11.8415 37.8397 12.4369 38.4969 12.7844 38.4969C12.892 38.4969 13.0406 38.4569 13.1295 38.4111C13.1295 38.4111 13.3927 38.2683 14.4642 37.5209Z" fill="#E2001A"/>
<path fill-rule="evenodd" clip-rule="evenodd" d="M23.5936 20.0267C23.8088 19.7204 23.7187 19.4918 23.5749 19.3684C23.4836 19.2907 21.3124 18.0049 21.3124 18.0049C21.1557 17.9021 21.0516 17.7284 21.0516 17.5284C21.0516 17.2129 21.2446 16.9764 21.6821 16.8575C23.0765 16.4827 27.985 16.2872 29.652 16.2872C30.4393 16.2872 31.9987 16.2815 33.0246 16.3478C34.1757 16.4209 35.0495 16.6541 35.2659 17.1981C35.6929 18.2644 34.9875 18.9227 34.4869 19.3661C34.2225 19.6015 30.6674 22.8758 26.4982 26.4369C22.8227 29.5764 18.7119 32.7695 16.3314 34.5124C12.9822 36.9604 12.3306 37.3169 12.3306 37.3169C12.2417 37.3638 12.0943 37.4038 11.9855 37.4038C11.6393 37.4038 11.3667 37.1444 11.3667 36.8038C11.3667 36.6758 11.4065 36.5547 11.4767 36.4575C11.4767 36.4575 18.0709 27.1752 19.2723 25.6049C20.4725 24.0369 23.3526 20.3638 23.3526 20.3638C23.3526 20.3638 23.3865 20.3227 23.5936 20.0267Z" fill="#FEFEFE"/>
</svg>
